<svg xmlns="http://www.w3.org/2000/svg" xmlns:xlink="http://www.w3.org/1999/xlink" version="1.1" viewBox="0 0 5378 3100" style="background: #ffffff"><defs><style>@import url(https://fonts.googleapis.com/css?family=Open+Sans:400,700);</style></defs><defs joint-selector="defs"></defs><g joint-selector="layers"  transform="matrix(1,0,0,1,0,0)"><g ></g><g ><g   id="j_277"  transform="translate(20,3062.5)"><g id="v-3418"><text  id="v-3419" font-size="22px" xml:space="preserve" y="0.8em" font-weight="normal" text-anchor="start" fill="#aaaaaa" pointer-events="none" display="block" font-family="Open Sans"><tspan dy="0" >Thursday, 29 February 2024 at 10:02 Moscow Standard Time</tspan></text></g></g><g   id="j_276"  transform="translate(20,3017.5)"><g id="v-3416"><text  id="v-3417" font-size="36px" xml:space="preserve" y="0.8em" font-weight="normal" text-anchor="start" fill="#000000" pointer-events="none" display="block" font-family="Open Sans"><tspan dy="0" >[Container] Machinegun cluster</tspan></text></g></g><g   id="j_280"  transform="translate(2806,2599)" style=""><g  id="v-3435" style="opacity: 1;"><rect  id="v-3436" rx="20" ry="20" stroke="#0f5eaa" stroke-width="2" pointer-events="visiblePainted" fill="#1168bd" width="450" height="300" style="fill: rgb(17, 104, 189); stroke: rgb(15, 94, 170);"></rect><text  id="v-3437" font-size="34" xml:space="preserve" y="0.8em" font-weight="bold" text-anchor="middle" pointer-events="visible" font-family="Open Sans" fill="#ffffff" transform="matrix(1,0,0,1,225,113.1)" style="fill: rgb(255, 255, 255);"><tspan dy="0" >Infrastructure</tspan></text><text  id="v-3438" font-size="17" xml:space="preserve" y="0.8em" text-anchor="middle" font-family="Open Sans" fill="#ffffff" transform="matrix(1,0,0,1,225,155.6)" style="fill: rgb(255, 255, 255);"><tspan dy="0" >[Software System]</tspan></text><text  id="v-3439" font-size="24" xml:space="preserve" display="none" y="0.8em" text-anchor="middle" font-family="Open Sans" fill="#ffffff" transform="matrix(1,0,0,1,225,186.9)" style="fill: rgb(255, 255, 255);"><tspan dy="0" style="fill-opacity: 0; stroke-opacity: 0;" >-</tspan></text><g  id="v-3440" color="#ffffff" transform="matrix(1,0,0,1,210,196.9)" display="none" style="fill: rgb(255, 255, 255);"><g  transform="translate(5 0)"><svg xmlns="http://www.w3.org/2000/svg" width="20" height="20" fill="currentColor" viewBox="0 0 16 16"><path fill-rule="evenodd" d="M6.5 12a5.5 5.5 0 1 0 0-11 5.5 5.5 0 0 0 0 11zM13 6.5a6.5 6.5 0 1 1-13 0 6.5 6.5 0 0 1 13 0z"></path><path d="M10.344 11.742c.03.04.062.078.098.115l3.85 3.85a1 1 0 0 0 1.415-1.414l-3.85-3.85a1.007 1.007 0 0 0-.115-.1 6.538 6.538 0 0 1-1.398 1.4z"></path><path fill-rule="evenodd" d="M6.5 3a.5.5 0 0 1 .5.5V6h2.5a.5.5 0 0 1 0 1H7v2.5a.5.5 0 0 1-1 0V7H3.5a.5.5 0 0 1 0-1H6V3.5a.5.5 0 0 1 .5-.5z"></path></svg></g><g ></g><g ></g><g ></g></g><image  id="v-3441"></image></g></g><g   id="j_284"  transform="translate(4577,1999)" style=""><g  id="v-3490" style="opacity: 1;"><rect  id="v-3491" rx="20" ry="20" stroke="#0f5eaa" stroke-width="2" pointer-events="visiblePainted" fill="#1168bd" width="450" height="300" style="fill: rgb(17, 104, 189); stroke: rgb(15, 94, 170);"></rect><text  id="v-3492" font-size="34" xml:space="preserve" y="0.8em" font-weight="bold" text-anchor="middle" pointer-events="visible" font-family="Open Sans" fill="#ffffff" transform="matrix(1,0,0,1,225,91.9)" style="fill: rgb(255, 255, 255);"><tspan dy="0" >Business processing</tspan><tspan dy="1.2em" x="0" >services</tspan></text><text  id="v-3493" font-size="17" xml:space="preserve" y="0.8em" text-anchor="middle" font-family="Open Sans" fill="#ffffff" transform="matrix(1,0,0,1,225,176.9)" style="fill: rgb(255, 255, 255);"><tspan dy="0" >[Software System]</tspan></text><text  id="v-3494" font-size="24" xml:space="preserve" display="none" y="0.8em" text-anchor="middle" font-family="Open Sans" fill="#ffffff" transform="matrix(1,0,0,1,225,208.1)" style="fill: rgb(255, 255, 255);"><tspan dy="0" style="fill-opacity: 0; stroke-opacity: 0;" >-</tspan></text><g  id="v-3495" color="#ffffff" transform="matrix(1,0,0,1,210,218.1)" display="none" style="fill: rgb(255, 255, 255);"><g  transform="translate(5 0)"><svg xmlns="http://www.w3.org/2000/svg" width="20" height="20" fill="currentColor" viewBox="0 0 16 16"><path fill-rule="evenodd" d="M6.5 12a5.5 5.5 0 1 0 0-11 5.5 5.5 0 0 0 0 11zM13 6.5a6.5 6.5 0 1 1-13 0 6.5 6.5 0 0 1 13 0z"></path><path d="M10.344 11.742c.03.04.062.078.098.115l3.85 3.85a1 1 0 0 0 1.415-1.414l-3.85-3.85a1.007 1.007 0 0 0-.115-.1 6.538 6.538 0 0 1-1.398 1.4z"></path><path fill-rule="evenodd" d="M6.5 3a.5.5 0 0 1 .5.5V6h2.5a.5.5 0 0 1 0 1H7v2.5a.5.5 0 0 1-1 0V7H3.5a.5.5 0 0 1 0-1H6V3.5a.5.5 0 0 1 .5-.5z"></path></svg></g><g ></g><g ></g><g ></g></g><image  id="v-3496"></image></g></g><g   id="j_288"  transform="translate(2469,199)" style=""><g  id="v-3530" style="opacity: 1;"><rect  id="v-3531" rx="20" ry="20" stroke="#0f5eaa" stroke-width="2" pointer-events="visiblePainted" fill="#1168bd" width="450" height="300" style="fill: rgb(17, 104, 189); stroke: rgb(15, 94, 170);"></rect><text  id="v-3532" font-size="34" xml:space="preserve" y="0.8em" font-weight="bold" text-anchor="middle" pointer-events="visible" font-family="Open Sans" fill="#ffffff" transform="matrix(1,0,0,1,225,113.1)" style="fill: rgb(255, 255, 255);"><tspan dy="0" >Backoffice</tspan></text><text  id="v-3533" font-size="17" xml:space="preserve" y="0.8em" text-anchor="middle" font-family="Open Sans" fill="#ffffff" transform="matrix(1,0,0,1,225,155.6)" style="fill: rgb(255, 255, 255);"><tspan dy="0" >[Software System]</tspan></text><text  id="v-3534" font-size="24" xml:space="preserve" display="none" y="0.8em" text-anchor="middle" font-family="Open Sans" fill="#ffffff" transform="matrix(1,0,0,1,225,186.9)" style="fill: rgb(255, 255, 255);"><tspan dy="0" style="fill-opacity: 0; stroke-opacity: 0;" >-</tspan></text><g  id="v-3535" color="#ffffff" transform="matrix(1,0,0,1,210,196.9)" display="none" style="fill: rgb(255, 255, 255);"><g  transform="translate(5 0)"><svg xmlns="http://www.w3.org/2000/svg" width="20" height="20" fill="currentColor" viewBox="0 0 16 16"><path fill-rule="evenodd" d="M6.5 12a5.5 5.5 0 1 0 0-11 5.5 5.5 0 0 0 0 11zM13 6.5a6.5 6.5 0 1 1-13 0 6.5 6.5 0 0 1 13 0z"></path><path d="M10.344 11.742c.03.04.062.078.098.115l3.85 3.85a1 1 0 0 0 1.415-1.414l-3.85-3.85a1.007 1.007 0 0 0-.115-.1 6.538 6.538 0 0 1-1.398 1.4z"></path><path fill-rule="evenodd" d="M6.5 3a.5.5 0 0 1 .5.5V6h2.5a.5.5 0 0 1 0 1H7v2.5a.5.5 0 0 1-1 0V7H3.5a.5.5 0 0 1 0-1H6V3.5a.5.5 0 0 1 .5-.5z"></path></svg></g><g ></g><g ></g><g ></g></g><image  id="v-3536"></image></g></g><g   id="j_279"  transform="translate(199,779)" style=""><g id="v-3430"><rect  id="v-3431" width="3490" height="1611" rx="0" ry="0" fill="#ffffff" stroke="#0f5eaa" stroke-width="1" stroke-dasharray="20,20" pointer-events="none"></rect><text  id="v-3432" font-size="24px" xml:space="preserve" y="1572" font-weight="normal" fill="#0f5eaa" text-anchor="start" pointer-events="visible" font-family="Open Sans" transform="matrix(1,0,0,1,15,0)"><tspan dy="0" >Machinegun cluster</tspan></text><text  id="v-3433" font-size="17px" xml:space="preserve" y="1596" font-weight="normal" fill="#0f5eaa" text-anchor="start" pointer-events="visible" font-family="Open Sans" transform="matrix(1,0,0,1,15,0)"><tspan dy="0" >[Software System]</tspan></text><image  id="v-3434" pointer-events="visible"></image></g></g><g   id="j_278"  transform="translate(3219,1999)" style=""><g  id="v-3423" style="opacity: 1;"><rect  id="v-3424" rx="20" ry="20" stroke="#3c7fc0" stroke-width="2" pointer-events="visiblePainted" fill="#438dd5" width="450" height="300" style="fill: rgb(67, 141, 213); stroke: rgb(60, 127, 192);"></rect><text  id="v-3425" font-size="34" xml:space="preserve" y="0.8em" font-weight="bold" text-anchor="middle" pointer-events="visible" font-family="Open Sans" fill="#ffffff" transform="matrix(1,0,0,1,225,113.1)" style="fill: rgb(255, 255, 255);"><tspan dy="0" >Quota management</tspan></text><text  id="v-3426" font-size="17" xml:space="preserve" y="0.8em" text-anchor="middle" font-family="Open Sans" fill="#ffffff" transform="matrix(1,0,0,1,225,155.6)" style="fill: rgb(255, 255, 255);"><tspan dy="0" >[Container]</tspan></text><text  id="v-3427" font-size="24" xml:space="preserve" display="none" y="0.8em" text-anchor="middle" font-family="Open Sans" fill="#ffffff" transform="matrix(1,0,0,1,225,186.9)" style="fill: rgb(255, 255, 255);"><tspan dy="0" style="fill-opacity: 0; stroke-opacity: 0;" >-</tspan></text><g  id="v-3428" color="#ffffff" transform="matrix(1,0,0,1,210,196.9)" display="none" style="fill: rgb(255, 255, 255);"><g  transform="translate(5 0)"><svg xmlns="http://www.w3.org/2000/svg" width="20" height="20" fill="currentColor" viewBox="0 0 16 16"><path fill-rule="evenodd" d="M6.5 12a5.5 5.5 0 1 0 0-11 5.5 5.5 0 0 0 0 11zM13 6.5a6.5 6.5 0 1 1-13 0 6.5 6.5 0 0 1 13 0z"></path><path d="M10.344 11.742c.03.04.062.078.098.115l3.85 3.85a1 1 0 0 0 1.415-1.414l-3.85-3.85a1.007 1.007 0 0 0-.115-.1 6.538 6.538 0 0 1-1.398 1.4z"></path><path fill-rule="evenodd" d="M6.5 3a.5.5 0 0 1 .5.5V6h2.5a.5.5 0 0 1 0 1H7v2.5a.5.5 0 0 1-1 0V7H3.5a.5.5 0 0 1 0-1H6V3.5a.5.5 0 0 1 .5-.5z"></path></svg></g><g ></g><g ></g><g ></g></g><image  id="v-3429"></image></g></g><g   id="j_281"  transform="translate(1719,1999)" style=""><g  id="v-3451" style="opacity: 1;"><rect  id="v-3452" rx="20" ry="20" stroke="#3c7fc0" stroke-width="2" pointer-events="visiblePainted" fill="#438dd5" width="450" height="300" style="fill: rgb(67, 141, 213); stroke: rgb(60, 127, 192);"></rect><text  id="v-3453" font-size="34" xml:space="preserve" y="0.8em" font-weight="bold" text-anchor="middle" pointer-events="visible" font-family="Open Sans" fill="#ffffff" transform="matrix(1,0,0,1,225,68.1)" style="fill: rgb(255, 255, 255);"><tspan dy="0" >Lifecycle Event Sink</tspan></text><text  id="v-3454" font-size="17" xml:space="preserve" y="0.8em" text-anchor="middle" font-family="Open Sans" fill="#ffffff" transform="matrix(1,0,0,1,225,110.6)" style="fill: rgb(255, 255, 255);"><tspan dy="0" >[Container: erlang, kafka, thrift]</tspan></text><text  id="v-3455" font-size="24" xml:space="preserve" y="0.8em" text-anchor="middle" font-family="Open Sans" fill="#ffffff" transform="matrix(1,0,0,1,225,141.9)" style="fill: rgb(255, 255, 255);"><tspan dy="0" >Machines lifecycle events publisher</tspan><tspan dy="1.2em" x="0" >via kafka topic and thirft</tspan><tspan dy="1.2em" x="0" >serialization of data</tspan></text><g  id="v-3456" color="#ffffff" transform="matrix(1,0,0,1,222.5,241.9)" display="none" style="fill: rgb(255, 255, 255);"><g ></g><g ></g><g ></g><g ></g></g><image  id="v-3457"></image></g></g><g   id="j_282"  transform="translate(969,1399)" style=""><g  id="v-3467" style="opacity: 1;"><rect  id="v-3468" rx="20" ry="20" stroke="#3c7fc0" stroke-width="2" pointer-events="visiblePainted" fill="#438dd5" width="450" height="300" style="fill: rgb(67, 141, 213); stroke: rgb(60, 127, 192);"></rect><text  id="v-3469" font-size="34" xml:space="preserve" y="0.8em" font-weight="bold" text-anchor="middle" pointer-events="visible" font-family="Open Sans" fill="#ffffff" transform="matrix(1,0,0,1,225,68.1)" style="fill: rgb(255, 255, 255);"><tspan dy="0" >Event Sink Thrift API</tspan></text><text  id="v-3470" font-size="17" xml:space="preserve" y="0.8em" text-anchor="middle" font-family="Open Sans" fill="#ffffff" transform="matrix(1,0,0,1,225,110.6)" style="fill: rgb(255, 255, 255);"><tspan dy="0" >[Container: erlang, http, thrift]</tspan></text><text  id="v-3471" font-size="24" xml:space="preserve" y="0.8em" text-anchor="middle" font-family="Open Sans" fill="#ffffff" transform="matrix(1,0,0,1,225,141.9)" style="fill: rgb(255, 255, 255);"><tspan dy="0" >Thrift service for reading all events</tspan><tspan dy="1.2em" x="0" >of all machine in strictly ordered</tspan><tspan dy="1.2em" x="0" >fashion</tspan></text><g  id="v-3472" color="#ffffff" transform="matrix(1,0,0,1,222.5,241.9)" display="none" style="fill: rgb(255, 255, 255);"><g ></g><g ></g><g ></g><g ></g></g><image  id="v-3473"></image></g></g><g   id="j_283"  transform="translate(2469,1399)" style=""><g  id="v-3480" style="opacity: 1;"><rect  id="v-3481" rx="20" ry="20" stroke="#3c7fc0" stroke-width="2" pointer-events="visiblePainted" fill="#438dd5" width="450" height="300" style="fill: rgb(67, 141, 213); stroke: rgb(60, 127, 192);"></rect><text  id="v-3482" font-size="34" xml:space="preserve" y="0.8em" font-weight="bold" text-anchor="middle" pointer-events="visible" font-family="Open Sans" fill="#ffffff" transform="matrix(1,0,0,1,225,46.9)" style="fill: rgb(255, 255, 255);"><tspan dy="0" >Namespaced events</tspan><tspan dy="1.2em" x="0" >machines</tspan></text><text  id="v-3483" font-size="17" xml:space="preserve" y="0.8em" text-anchor="middle" font-family="Open Sans" fill="#ffffff" transform="matrix(1,0,0,1,225,131.9)" style="fill: rgb(255, 255, 255);"><tspan dy="0" >[Container]</tspan></text><text  id="v-3484" font-size="24" xml:space="preserve" y="0.8em" text-anchor="middle" font-family="Open Sans" fill="#ffffff" transform="matrix(1,0,0,1,225,163.1)" style="fill: rgb(255, 255, 255);"><tspan dy="0" >Each instance of child component is</tspan><tspan dy="1.2em" x="0" >dedicated to parent namespace</tspan><tspan dy="1.2em" x="0" >only</tspan></text><g  id="v-3485" color="#ffffff" transform="matrix(1,0,0,1,210,263.1)" display="none" style="fill: rgb(255, 255, 255);"><g  transform="translate(5 0)"><svg xmlns="http://www.w3.org/2000/svg" width="20" height="20" fill="currentColor" viewBox="0 0 16 16"><path fill-rule="evenodd" d="M6.5 12a5.5 5.5 0 1 0 0-11 5.5 5.5 0 0 0 0 11zM13 6.5a6.5 6.5 0 1 1-13 0 6.5 6.5 0 0 1 13 0z"></path><path d="M10.344 11.742c.03.04.062.078.098.115l3.85 3.85a1 1 0 0 0 1.415-1.414l-3.85-3.85a1.007 1.007 0 0 0-.115-.1 6.538 6.538 0 0 1-1.398 1.4z"></path><path fill-rule="evenodd" d="M6.5 3a.5.5 0 0 1 .5.5V6h2.5a.5.5 0 0 1 0 1H7v2.5a.5.5 0 0 1-1 0V7H3.5a.5.5 0 0 1 0-1H6V3.5a.5.5 0 0 1 .5-.5z"></path></svg></g><g ></g><g ></g><g ></g></g><image  id="v-3486"></image></g></g><g   id="j_285"  transform="translate(3219,799)" style=""><g  id="v-3497" style="opacity: 1;"><rect  id="v-3498" rx="20" ry="20" stroke="#3c7fc0" stroke-width="2" pointer-events="visiblePainted" fill="#438dd5" width="450" height="300" style="fill: rgb(67, 141, 213); stroke: rgb(60, 127, 192);"></rect><text  id="v-3499" font-size="34" xml:space="preserve" y="0.8em" font-weight="bold" text-anchor="middle" pointer-events="visible" font-family="Open Sans" fill="#ffffff" transform="matrix(1,0,0,1,225,113.1)" style="fill: rgb(255, 255, 255);"><tspan dy="0" >Pulse handler</tspan></text><text  id="v-3500" font-size="17" xml:space="preserve" y="0.8em" text-anchor="middle" font-family="Open Sans" fill="#ffffff" transform="matrix(1,0,0,1,225,155.6)" style="fill: rgb(255, 255, 255);"><tspan dy="0" >[Container]</tspan></text><text  id="v-3501" font-size="24" xml:space="preserve" display="none" y="0.8em" text-anchor="middle" font-family="Open Sans" fill="#ffffff" transform="matrix(1,0,0,1,225,186.9)" style="fill: rgb(255, 255, 255);"><tspan dy="0" style="fill-opacity: 0; stroke-opacity: 0;" >-</tspan></text><g  id="v-3502" color="#ffffff" transform="matrix(1,0,0,1,222.5,196.9)" display="none" style="fill: rgb(255, 255, 255);"><g ></g><g ></g><g ></g><g ></g></g><image  id="v-3503"></image></g></g><g   id="j_286"  transform="translate(2469,799)" style=""><g  id="v-3513" style="opacity: 1;"><rect  id="v-3514" rx="20" ry="20" stroke="#3c7fc0" stroke-width="2" pointer-events="visiblePainted" fill="#438dd5" width="450" height="300" style="fill: rgb(67, 141, 213); stroke: rgb(60, 127, 192);"></rect><text  id="v-3515" font-size="34" xml:space="preserve" y="0.8em" font-weight="bold" text-anchor="middle" pointer-events="visible" font-family="Open Sans" fill="#ffffff" transform="matrix(1,0,0,1,225,83.1)" style="fill: rgb(255, 255, 255);"><tspan dy="0" >Automaton Thrift API</tspan></text><text  id="v-3516" font-size="17" xml:space="preserve" y="0.8em" text-anchor="middle" font-family="Open Sans" fill="#ffffff" transform="matrix(1,0,0,1,225,125.6)" style="fill: rgb(255, 255, 255);"><tspan dy="0" >[Container: erlang, http, thrift]</tspan></text><text  id="v-3517" font-size="24" xml:space="preserve" y="0.8em" text-anchor="middle" font-family="Open Sans" fill="#ffffff" transform="matrix(1,0,0,1,225,156.9)" style="fill: rgb(255, 255, 255);"><tspan dy="0" >Thrift service for managing</tspan><tspan dy="1.2em" x="0" >machines in known namespaces</tspan></text><g  id="v-3518" color="#ffffff" transform="matrix(1,0,0,1,222.5,226.9)" display="none" style="fill: rgb(255, 255, 255);"><g ></g><g ></g><g ></g><g ></g></g><image  id="v-3519"></image></g></g><g   id="j_287"  transform="translate(2469,1999)" style=""><g  id="v-3523" style="opacity: 1;"><rect  id="v-3524" rx="20" ry="20" stroke="#3c7fc0" stroke-width="2" pointer-events="visiblePainted" fill="#438dd5" width="450" height="300" style="fill: rgb(67, 141, 213); stroke: rgb(60, 127, 192);"></rect><text  id="v-3525" font-size="34" xml:space="preserve" y="0.8em" font-weight="bold" text-anchor="middle" pointer-events="visible" font-family="Open Sans" fill="#ffffff" transform="matrix(1,0,0,1,225,113.1)" style="fill: rgb(255, 255, 255);"><tspan dy="0" >Cluster management</tspan></text><text  id="v-3526" font-size="17" xml:space="preserve" y="0.8em" text-anchor="middle" font-family="Open Sans" fill="#ffffff" transform="matrix(1,0,0,1,225,155.6)" style="fill: rgb(255, 255, 255);"><tspan dy="0" >[Container]</tspan></text><text  id="v-3527" font-size="24" xml:space="preserve" display="none" y="0.8em" text-anchor="middle" font-family="Open Sans" fill="#ffffff" transform="matrix(1,0,0,1,225,186.9)" style="fill: rgb(255, 255, 255);"><tspan dy="0" style="fill-opacity: 0; stroke-opacity: 0;" >-</tspan></text><g  id="v-3528" color="#ffffff" transform="matrix(1,0,0,1,210,196.9)" display="none" style="fill: rgb(255, 255, 255);"><g  transform="translate(5 0)"><svg xmlns="http://www.w3.org/2000/svg" width="20" height="20" fill="currentColor" viewBox="0 0 16 16"><path fill-rule="evenodd" d="M6.5 12a5.5 5.5 0 1 0 0-11 5.5 5.5 0 0 0 0 11zM13 6.5a6.5 6.5 0 1 1-13 0 6.5 6.5 0 0 1 13 0z"></path><path d="M10.344 11.742c.03.04.062.078.098.115l3.85 3.85a1 1 0 0 0 1.415-1.414l-3.85-3.85a1.007 1.007 0 0 0-.115-.1 6.538 6.538 0 0 1-1.398 1.4z"></path><path fill-rule="evenodd" d="M6.5 3a.5.5 0 0 1 .5.5V6h2.5a.5.5 0 0 1 0 1H7v2.5a.5.5 0 0 1-1 0V7H3.5a.5.5 0 0 1 0-1H6V3.5a.5.5 0 0 1 .5-.5z"></path></svg></g><g ></g><g ></g><g ></g></g><image  id="v-3529"></image></g></g><g   id="j_289"  transform="translate(219,1999)" style=""><g  id="v-3543" style="opacity: 1;"><rect  id="v-3544" rx="20" ry="20" stroke="#3c7fc0" stroke-width="2" pointer-events="visiblePainted" fill="#438dd5" width="450" height="300" style="fill: rgb(67, 141, 213); stroke: rgb(60, 127, 192);"></rect><text  id="v-3545" font-size="34" xml:space="preserve" y="0.8em" font-weight="bold" text-anchor="middle" pointer-events="visible" font-family="Open Sans" fill="#ffffff" transform="matrix(1,0,0,1,225,16.9)" style="fill: rgb(255, 255, 255);"><tspan dy="0" >Event sink collector</tspan><tspan dy="1.2em" x="0" >machine</tspan></text><text  id="v-3546" font-size="17" xml:space="preserve" y="0.8em" text-anchor="middle" font-family="Open Sans" fill="#ffffff" transform="matrix(1,0,0,1,225,101.9)" style="fill: rgb(255, 255, 255);"><tspan dy="0" >[Container]</tspan></text><text  id="v-3547" font-size="24" xml:space="preserve" y="0.8em" text-anchor="middle" font-family="Open Sans" fill="#ffffff" transform="matrix(1,0,0,1,225,133.1)" style="fill: rgb(255, 255, 255);"><tspan dy="0" >This process starts as a machine</tspan><tspan dy="1.2em" x="0" >with internal processor. Other than</tspan><tspan dy="1.2em" x="0" >that it is a machine with a</tspan><tspan dy="1.2em" x="0" >namespace and its very own</tspan><tspan dy="1.2em" x="0" >options.</tspan></text><g  id="v-3548" color="#ffffff" transform="matrix(1,0,0,1,222.5,293.1)" display="none" style="fill: rgb(255, 255, 255);"><g ></g><g ></g><g ></g><g ></g></g><image  id="v-3549"></image></g></g><g   id="j_290"  transform="translate(969,1999)" style=""><g  id="v-3559" style="opacity: 1;"><rect  id="v-3560" rx="20" ry="20" stroke="#3c7fc0" stroke-width="2" pointer-events="visiblePainted" fill="#438dd5" width="450" height="300" style="fill: rgb(67, 141, 213); stroke: rgb(60, 127, 192);"></rect><text  id="v-3561" font-size="34" xml:space="preserve" y="0.8em" font-weight="bold" text-anchor="middle" pointer-events="visible" font-family="Open Sans" fill="#ffffff" transform="matrix(1,0,0,1,225,31.9)" style="fill: rgb(255, 255, 255);"><tspan dy="0" >Machines Business Event</tspan><tspan dy="1.2em" x="0" >Sink</tspan></text><text  id="v-3562" font-size="17" xml:space="preserve" y="0.8em" text-anchor="middle" font-family="Open Sans" fill="#ffffff" transform="matrix(1,0,0,1,225,116.9)" style="fill: rgb(255, 255, 255);"><tspan dy="0" >[Container: erlang, kafka, thrift]</tspan></text><text  id="v-3563" font-size="24" xml:space="preserve" y="0.8em" text-anchor="middle" font-family="Open Sans" fill="#ffffff" transform="matrix(1,0,0,1,225,148.1)" style="fill: rgb(255, 255, 255);"><tspan dy="0" >Machines business events publisher</tspan><tspan dy="1.2em" x="0" >via kafka topic on per-namcespace</tspan><tspan dy="1.2em" x="0" >basis and thirft serialization of its</tspan><tspan dy="1.2em" x="0" >data</tspan></text><g  id="v-3564" color="#ffffff" transform="matrix(1,0,0,1,222.5,278.1)" display="none" style="fill: rgb(255, 255, 255);"><g ></g><g ></g><g ></g><g ></g></g><image  id="v-3565"></image></g></g><g   id="j_291" ><path  stroke="#707070" d="M 2694 1099 L 2694 1399" id="v-3581" stroke-width="2" stroke-dasharray="30 30" fill="none" style="opacity: 1;"></path><path  fill="black" stroke="black" d="M 0 0 0 0" transform="matrix(6.123233995736766e-17,1,-1,6.123233995736766e-17,2694,1099)"></path><path  fill="#707070" stroke="#707070" d="M 20 0 L 0 10 L 20 20 z" id="v-3583" transform="matrix(-1.8369701987210297e-16,-1,1,-1.8369701987210297e-16,2684,1399.0000000000002)" style="opacity: 1;"></path><path  d="M 2694 1099 L 2694 1399" id="v-3582" fill="none" style="cursor: auto; pointer-events: visiblepainted;"></path><g ><g id="v-3572"  label-idx="0" cursor="move" transform="matrix(1,0,0,1,2694,1249)" style="cursor: default; opacity: 1;"><rect joint-selector="rect" id="v-3576" fill="#ffffff" rx="3" ry="3" pointer-events="none" width="165.63662719726562" height="34.65554237365723" transform="matrix(1,0,0,1,-82.8,-17.4)"></rect><text joint-selector="text" id="v-3575" font-size="24px" xml:space="preserve" y="0.8em" fill="#707070" text-anchor="middle" pointer-events="none" font-family="Open Sans" font-weight="normal" transform="matrix(1,0,0,1,0,-9.6)"><tspan dy="0" >Calls machines</tspan></text></g><g id="v-3573"  label-idx="1" cursor="move" transform="matrix(1,0,0,1,2694,1276)" style="cursor: default; opacity: 1;"><rect joint-selector="rect" id="v-3578" fill="#ffffff" rx="3" ry="3" pointer-events="none" width="60.94802474975586" height="23.332547187805176" transform="matrix(1,0,0,1,-30.5,-11.7)"></rect><text joint-selector="text" id="v-3577" font-size="17px" xml:space="preserve" y="0.8em" fill="#707070" text-anchor="middle" pointer-events="none" font-family="Open Sans" font-weight="normal" transform="matrix(1,0,0,1,0,-6)"><tspan dy="0" >[erlang]</tspan></text></g><g id="v-3574"  label-idx="2" cursor="move" transform="matrix(1,0,0,1,2684,1285.25)" style="cursor: default; opacity: 1;"><rect joint-selector="rect" id="v-3580" fill="#ffffff" rx="3" ry="3"  width="0" height="0" transform="matrix(1,0,0,1,0,0)" display="none"></rect><text joint-selector="text" id="v-3579" fill="#000000" font-size="14" text-anchor="middle" pointer-events="none"></text></g></g><g  display="none" style="display: none;"></g><g  id="v-3585" display="none"><g  id="v-3570"><path  end="source" d="M 26 0 L 0 13 L 26 26 z"></path></g><g  id="v-3571"><path  end="target" d="M 26 0 L 0 13 L 26 26 z"></path></g></g><g  id="v-3584" display="none"><g  id="v-3569" transform="translate(2694, 1139) "><g  event="remove"><circle r="11"></circle><path transform="scale(.8) translate(-16, -16)" d="M24.778,21.419 19.276,15.917 24.777,10.415 21.949,7.585 16.447,13.087 10.945,7.585 8.117,10.415 13.618,15.917 8.116,21.419 10.946,24.248 16.447,18.746 21.948,24.248z"></path><title>Remove link.</title></g><g  event="link:options"><circle r="11" transform="translate(25)"></circle><path fill="white" transform="scale(.55) translate(29, -16)" d="M31.229,17.736c0.064-0.571,0.104-1.148,0.104-1.736s-0.04-1.166-0.104-1.737l-4.377-1.557c-0.218-0.716-0.504-1.401-0.851-2.05l1.993-4.192c-0.725-0.91-1.549-1.734-2.458-2.459l-4.193,1.994c-0.647-0.347-1.334-0.632-2.049-0.849l-1.558-4.378C17.165,0.708,16.588,0.667,16,0.667s-1.166,0.041-1.737,0.105L12.707,5.15c-0.716,0.217-1.401,0.502-2.05,0.849L6.464,4.005C5.554,4.73,4.73,5.554,4.005,6.464l1.994,4.192c-0.347,0.648-0.632,1.334-0.849,2.05l-4.378,1.557C0.708,14.834,0.667,15.412,0.667,16s0.041,1.165,0.105,1.736l4.378,1.558c0.217,0.715,0.502,1.401,0.849,2.049l-1.994,4.193c0.725,0.909,1.549,1.733,2.459,2.458l4.192-1.993c0.648,0.347,1.334,0.633,2.05,0.851l1.557,4.377c0.571,0.064,1.148,0.104,1.737,0.104c0.588,0,1.165-0.04,1.736-0.104l1.558-4.377c0.715-0.218,1.399-0.504,2.049-0.851l4.193,1.993c0.909-0.725,1.733-1.549,2.458-2.458l-1.993-4.193c0.347-0.647,0.633-1.334,0.851-2.049L31.229,17.736zM16,20.871c-2.69,0-4.872-2.182-4.872-4.871c0-2.69,2.182-4.872,4.872-4.872c2.689,0,4.871,2.182,4.871,4.872C20.871,18.689,18.689,20.871,16,20.871z"></path><title>Link options.</title></g></g></g></g><g   id="j_292" ><path  stroke="#707070" d="M 2919 1639 L 3810 1995 C 3816 1997.6666666666665 3819 2002.333333333333 3819 2009 L 3819 2393 C 3819 2399.6666666666665 3816 2404.333333333333 3810 2407 L 3256 2650" id="v-3603" stroke-width="2" stroke-dasharray="30 30" fill="none" style="opacity: 1;"></path><path  fill="black" stroke="black" d="M 0 0 0 0" transform="matrix(0.9284766955435519,0.371390664708372,-0.371390664708372,0.9284766955435519,2919,1639)"></path><path  fill="#707070" stroke="#707070" d="M 20 0 L 0 10 L 20 20 z" id="v-3605" transform="matrix(0.9156205409876209,-0.4020435609750968,0.4020435609750968,0.9156205409876209,3251.9796089803726,2641.053683324875)" style="opacity: 1;"></path><path  d="M 2919 1639 L 3810 1995 C 3816 1997.6666666666665 3819 2002.333333333333 3819 2009 L 3819 2393 C 3819 2399.6666666666665 3816 2404.333333333333 3810 2407 L 3256 2650" id="v-3604" fill="none" style="cursor: auto; pointer-events: visiblepainted;"></path><g ><g id="v-3594"  label-idx="0" cursor="move" transform="matrix(1,0,0,1,3819,2023.7313232421875)" style="cursor: default; opacity: 1;"><rect joint-selector="rect" id="v-3598" fill="#ffffff" rx="3" ry="3" pointer-events="none" width="190.84613037109375" height="63.45554161071777" transform="matrix(1,0,0,1,-95.4,-31.8)"></rect><text joint-selector="text" id="v-3597" font-size="24px" xml:space="preserve" y="0.8em" fill="#707070" text-anchor="middle" pointer-events="none" font-family="Open Sans" font-weight="normal" transform="matrix(1,0,0,1,0,-24)"><tspan dy="0" >Reads and writes</tspan><tspan dy="1.2em" x="0" >business events</tspan></text></g><g id="v-3595"  label-idx="1" cursor="move" transform="matrix(1,0,0,1,3819,2065.731201171875)" style="cursor: default; opacity: 1;"><rect joint-selector="rect" id="v-3600" fill="#ffffff" rx="3" ry="3" pointer-events="none" width="145.84205627441406" height="23.332547187805176" transform="matrix(1,0,0,1,-72.9,-11.7)"></rect><text joint-selector="text" id="v-3599" font-size="17px" xml:space="preserve" y="0.8em" fill="#707070" text-anchor="middle" pointer-events="none" font-family="Open Sans" font-weight="normal" transform="matrix(1,0,0,1,0,-6)"><tspan dy="0" >[erlang, protobuff]</tspan></text></g><g id="v-3596"  label-idx="2" cursor="move" transform="matrix(1,0,0,1,3809,2074.981201171875)" style="cursor: default; opacity: 1;"><rect joint-selector="rect" id="v-3602" fill="#ffffff" rx="3" ry="3"  width="0" height="0" transform="matrix(1,0,0,1,0,0)" display="none"></rect><text joint-selector="text" id="v-3601" fill="#000000" font-size="14" text-anchor="middle" pointer-events="none"></text></g></g><g  display="none" style="display: none;"><g  transform="translate(3819, 1999)" id="v-3590"><circle  idx="0" r="10"></circle><path  idx="0" d="M16,5.333c-7.732,0-14,4.701-14,10.5c0,1.982,0.741,3.833,2.016,5.414L2,25.667l5.613-1.441c2.339,1.317,5.237,2.107,8.387,2.107c7.732,0,14-4.701,14-10.5C30,10.034,23.732,5.333,16,5.333z" transform="translate(5, -33)"></path><path  idx="0" transform="scale(.8) translate(9.5, -37)" d="M24.778,21.419 19.276,15.917 24.777,10.415 21.949,7.585 16.447,13.087 10.945,7.585 8.117,10.415 13.618,15.917 8.116,21.419 10.946,24.248 16.447,18.746 21.948,24.248z"><title>Remove vertex.</title></path></g><g  transform="translate(3819, 2403)" id="v-3591"><circle  idx="1" r="10"></circle><path  idx="1" d="M16,5.333c-7.732,0-14,4.701-14,10.5c0,1.982,0.741,3.833,2.016,5.414L2,25.667l5.613-1.441c2.339,1.317,5.237,2.107,8.387,2.107c7.732,0,14-4.701,14-10.5C30,10.034,23.732,5.333,16,5.333z" transform="translate(5, -33)"></path><path  idx="1" transform="scale(.8) translate(9.5, -37)" d="M24.778,21.419 19.276,15.917 24.777,10.415 21.949,7.585 16.447,13.087 10.945,7.585 8.117,10.415 13.618,15.917 8.116,21.419 10.946,24.248 16.447,18.746 21.948,24.248z"><title>Remove vertex.</title></path></g></g><g  id="v-3607" display="none"><g  id="v-3592"><path  end="source" d="M 26 0 L 0 13 L 26 26 z"></path></g><g  id="v-3593"><path  end="target" d="M 26 0 L 0 13 L 26 26 z"></path></g></g><g  id="v-3606" display="none"><g  id="v-3589" transform="translate(2956.1448150471383, 1653.8412504565445) "><g  event="remove"><circle r="11"></circle><path transform="scale(.8) translate(-16, -16)" d="M24.778,21.419 19.276,15.917 24.777,10.415 21.949,7.585 16.447,13.087 10.945,7.585 8.117,10.415 13.618,15.917 8.116,21.419 10.946,24.248 16.447,18.746 21.948,24.248z"></path><title>Remove link.</title></g><g  event="link:options"><circle r="11" transform="translate(25)"></circle><path fill="white" transform="scale(.55) translate(29, -16)" d="M31.229,17.736c0.064-0.571,0.104-1.148,0.104-1.736s-0.04-1.166-0.104-1.737l-4.377-1.557c-0.218-0.716-0.504-1.401-0.851-2.05l1.993-4.192c-0.725-0.91-1.549-1.734-2.458-2.459l-4.193,1.994c-0.647-0.347-1.334-0.632-2.049-0.849l-1.558-4.378C17.165,0.708,16.588,0.667,16,0.667s-1.166,0.041-1.737,0.105L12.707,5.15c-0.716,0.217-1.401,0.502-2.05,0.849L6.464,4.005C5.554,4.73,4.73,5.554,4.005,6.464l1.994,4.192c-0.347,0.648-0.632,1.334-0.849,2.05l-4.378,1.557C0.708,14.834,0.667,15.412,0.667,16s0.041,1.165,0.105,1.736l4.378,1.558c0.217,0.715,0.502,1.401,0.849,2.049l-1.994,4.193c0.725,0.909,1.549,1.733,2.459,2.458l4.192-1.993c0.648,0.347,1.334,0.633,2.05,0.851l1.557,4.377c0.571,0.064,1.148,0.104,1.737,0.104c0.588,0,1.165-0.04,1.736-0.104l1.558-4.377c0.715-0.218,1.399-0.504,2.049-0.851l4.193,1.993c0.909-0.725,1.733-1.549,2.458-2.458l-1.993-4.193c0.347-0.647,0.633-1.334,0.851-2.049L31.229,17.736zM16,20.871c-2.69,0-4.872-2.182-4.872-4.871c0-2.69,2.182-4.872,4.872-4.872c2.689,0,4.871,2.182,4.871,4.872C20.871,18.689,18.689,20.871,16,20.871z"></path><title>Link options.</title></g></g></g></g><g   id="j_293" ><path  stroke="#707070" d="M 1007 1699 L 632 1999" id="v-3620" stroke-width="2" stroke-dasharray="30 30" fill="none" style="opacity: 1;"></path><path  fill="black" stroke="black" d="M 0 0 0 0" transform="matrix(-0.7808688416748546,0.6246950072646418,-0.6246950072646418,-0.7808688416748546,1006.5,1699)"></path><path  fill="#707070" stroke="#707070" d="M 20 0 L 0 10 L 20 20 z" id="v-3622" transform="matrix(0.7808686753084834,-0.624695215222571,0.624695215222571,0.7808686753084834,625.2530769150017,1991.1913171569533)" style="opacity: 1;"></path><path  d="M 1007 1699 L 632 1999" id="v-3621" fill="none" style="cursor: auto; pointer-events: visiblepainted;"></path><g ><g id="v-3611"  label-idx="0" cursor="move" transform="matrix(1,0,0,1,819.5,1849)" style="cursor: default; opacity: 1;"><rect joint-selector="rect" id="v-3615" fill="#ffffff" rx="3" ry="3" pointer-events="none" width="87.66166687011719" height="34.65554237365723" transform="matrix(1,0,0,1,-43.8,-17.4)"></rect><text joint-selector="text" id="v-3614" font-size="24px" xml:space="preserve" y="0.8em" fill="#707070" text-anchor="middle" pointer-events="none" font-family="Open Sans" font-weight="normal" transform="matrix(1,0,0,1,0,-9.6)"><tspan dy="0" >Queries</tspan></text></g><g id="v-3612"  label-idx="1" cursor="move" transform="matrix(1,0,0,1,819.5,1876)" style="cursor: default; opacity: 1;"><rect joint-selector="rect" id="v-3617" fill="#ffffff" rx="3" ry="3" pointer-events="none" width="60.94802474975586" height="23.332547187805176" transform="matrix(1,0,0,1,-30.5,-11.7)"></rect><text joint-selector="text" id="v-3616" font-size="17px" xml:space="preserve" y="0.8em" fill="#707070" text-anchor="middle" pointer-events="none" font-family="Open Sans" font-weight="normal" transform="matrix(1,0,0,1,0,-6)"><tspan dy="0" >[erlang]</tspan></text></g><g id="v-3613"  label-idx="2" cursor="move" transform="matrix(1,0,0,1,809.5,1885.25)" style="cursor: default; opacity: 1;"><rect joint-selector="rect" id="v-3619" fill="#ffffff" rx="3" ry="3"  width="0" height="0" transform="matrix(1,0,0,1,0,0)" display="none"></rect><text joint-selector="text" id="v-3618" fill="#000000" font-size="14" text-anchor="middle" pointer-events="none"></text></g></g><g  display="none" style="display: none;"></g><g  id="v-3624" display="none"><g  id="v-3609"><path  end="source" d="M 26 0 L 0 13 L 26 26 z"></path></g><g  id="v-3610"><path  end="target" d="M 26 0 L 0 13 L 26 26 z"></path></g></g><g  id="v-3623" display="none"><g  id="v-3608" transform="translate(975.7652476222788, 1723.9878019021771) "><g  event="remove"><circle r="11"></circle><path transform="scale(.8) translate(-16, -16)" d="M24.778,21.419 19.276,15.917 24.777,10.415 21.949,7.585 16.447,13.087 10.945,7.585 8.117,10.415 13.618,15.917 8.116,21.419 10.946,24.248 16.447,18.746 21.948,24.248z"></path><title>Remove link.</title></g><g  event="link:options"><circle r="11" transform="translate(25)"></circle><path fill="white" transform="scale(.55) translate(29, -16)" d="M31.229,17.736c0.064-0.571,0.104-1.148,0.104-1.736s-0.04-1.166-0.104-1.737l-4.377-1.557c-0.218-0.716-0.504-1.401-0.851-2.05l1.993-4.192c-0.725-0.91-1.549-1.734-2.458-2.459l-4.193,1.994c-0.647-0.347-1.334-0.632-2.049-0.849l-1.558-4.378C17.165,0.708,16.588,0.667,16,0.667s-1.166,0.041-1.737,0.105L12.707,5.15c-0.716,0.217-1.401,0.502-2.05,0.849L6.464,4.005C5.554,4.73,4.73,5.554,4.005,6.464l1.994,4.192c-0.347,0.648-0.632,1.334-0.849,2.05l-4.378,1.557C0.708,14.834,0.667,15.412,0.667,16s0.041,1.165,0.105,1.736l4.378,1.558c0.217,0.715,0.502,1.401,0.849,2.049l-1.994,4.193c0.725,0.909,1.549,1.733,2.459,2.458l4.192-1.993c0.648,0.347,1.334,0.633,2.05,0.851l1.557,4.377c0.571,0.064,1.148,0.104,1.737,0.104c0.588,0,1.165-0.04,1.736-0.104l1.558-4.377c0.715-0.218,1.399-0.504,2.049-0.851l4.193,1.993c0.909-0.725,1.733-1.549,2.458-2.458l-1.993-4.193c0.347-0.647,0.633-1.334,0.851-2.049L31.229,17.736zM16,20.871c-2.69,0-4.872-2.182-4.872-4.871c0-2.69,2.182-4.872,4.872-4.872c2.689,0,4.871,2.182,4.871,4.872C20.871,18.689,18.689,20.871,16,20.871z"></path><title>Link options.</title></g></g></g></g><g   id="j_294" ><path  stroke="#707070" d="M 2694 1699 L 2694 1999" id="v-3637" stroke-width="2" stroke-dasharray="30 30" fill="none" style="opacity: 1;"></path><path  fill="black" stroke="black" d="M 0 0 0 0" transform="matrix(6.123233995736766e-17,1,-1,6.123233995736766e-17,2694,1699)"></path><path  fill="#707070" stroke="#707070" d="M 20 0 L 0 10 L 20 20 z" id="v-3639" transform="matrix(-1.8369701987210297e-16,-1,1,-1.8369701987210297e-16,2684,1999.0000000000002)" style="opacity: 1;"></path><path  d="M 2694 1699 L 2694 1999" id="v-3638" fill="none" style="cursor: auto; pointer-events: visiblepainted;"></path><g ><g id="v-3631"  label-idx="0" cursor="move" transform="matrix(1,0,0,1,2694,1849)" style="cursor: default; opacity: 1;"><rect joint-selector="rect" id="v-3634" fill="#ffffff" rx="3" ry="3" pointer-events="none" width="163.04949951171875" height="121.05554580688477" transform="matrix(1,0,0,1,-81.5,-60.6)"></rect><text joint-selector="text" id="v-3633" font-size="24px" xml:space="preserve" y="0.8em" fill="#707070" text-anchor="middle" pointer-events="none" font-family="Open Sans" font-weight="normal" transform="matrix(1,0,0,1,0,-52.8)"><tspan dy="0" >Relies for</tspan><tspan dy="1.2em" x="0" >instancing and</tspan><tspan dy="1.2em" x="0" >addressing</tspan><tspan dy="1.2em" x="0" >workers</tspan></text></g><g id="v-3632"  label-idx="1" cursor="move" transform="matrix(1,0,0,1,2684,1921)" style="cursor: default; opacity: 1;"><rect joint-selector="rect" id="v-3636" fill="#ffffff" rx="3" ry="3"  width="0" height="0" transform="matrix(1,0,0,1,0,0)" display="none"></rect><text joint-selector="text" id="v-3635" fill="#000000" font-size="14" text-anchor="middle" pointer-events="none"></text></g></g><g  display="none" style="display: none;"></g><g  id="v-3641" display="none"><g  id="v-3629"><path  end="source" d="M 26 0 L 0 13 L 26 26 z"></path></g><g  id="v-3630"><path  end="target" d="M 26 0 L 0 13 L 26 26 z"></path></g></g><g  id="v-3640" display="none"><g  id="v-3628" transform="translate(2694, 1739) "><g  event="remove"><circle r="11"></circle><path transform="scale(.8) translate(-16, -16)" d="M24.778,21.419 19.276,15.917 24.777,10.415 21.949,7.585 16.447,13.087 10.945,7.585 8.117,10.415 13.618,15.917 8.116,21.419 10.946,24.248 16.447,18.746 21.948,24.248z"></path><title>Remove link.</title></g><g  event="link:options"><circle r="11" transform="translate(25)"></circle><path fill="white" transform="scale(.55) translate(29, -16)" d="M31.229,17.736c0.064-0.571,0.104-1.148,0.104-1.736s-0.04-1.166-0.104-1.737l-4.377-1.557c-0.218-0.716-0.504-1.401-0.851-2.05l1.993-4.192c-0.725-0.91-1.549-1.734-2.458-2.459l-4.193,1.994c-0.647-0.347-1.334-0.632-2.049-0.849l-1.558-4.378C17.165,0.708,16.588,0.667,16,0.667s-1.166,0.041-1.737,0.105L12.707,5.15c-0.716,0.217-1.401,0.502-2.05,0.849L6.464,4.005C5.554,4.73,4.73,5.554,4.005,6.464l1.994,4.192c-0.347,0.648-0.632,1.334-0.849,2.05l-4.378,1.557C0.708,14.834,0.667,15.412,0.667,16s0.041,1.165,0.105,1.736l4.378,1.558c0.217,0.715,0.502,1.401,0.849,2.049l-1.994,4.193c0.725,0.909,1.549,1.733,2.459,2.458l4.192-1.993c0.648,0.347,1.334,0.633,2.05,0.851l1.557,4.377c0.571,0.064,1.148,0.104,1.737,0.104c0.588,0,1.165-0.04,1.736-0.104l1.558-4.377c0.715-0.218,1.399-0.504,2.049-0.851l4.193,1.993c0.909-0.725,1.733-1.549,2.458-2.458l-1.993-4.193c0.347-0.647,0.633-1.334,0.851-2.049L31.229,17.736zM16,20.871c-2.69,0-4.872-2.182-4.872-4.871c0-2.69,2.182-4.872,4.872-4.872c2.689,0,4.871,2.182,4.871,4.872C20.871,18.689,18.689,20.871,16,20.871z"></path><title>Link options.</title></g></g></g></g><g   id="j_295" ><path  stroke="#707070" d="M 2882 1699 L 3257 1999" id="v-3654" stroke-width="2" stroke-dasharray="30 30" fill="none" style="opacity: 1;"></path><path  fill="black" stroke="black" d="M 0 0 0 0" transform="matrix(0.7808688000832672,0.624695059254128,-0.624695059254128,0.7808688000832672,2881.5,1699)"></path><path  fill="#707070" stroke="#707070" d="M 20 0 L 0 10 L 20 20 z" id="v-3656" transform="matrix(-0.7808688416748548,-0.6246950072646416,0.6246950072646416,-0.7808688416748548,3250.253144594102,2006.8086902472078)" style="opacity: 1;"></path><path  d="M 2882 1699 L 3257 1999" id="v-3655" fill="none" style="cursor: auto; pointer-events: visiblepainted;"></path><g ><g id="v-3648"  label-idx="0" cursor="move" transform="matrix(1,0,0,1,3069.5,1849)" style="cursor: default; opacity: 1;"><rect joint-selector="rect" id="v-3651" fill="#ffffff" rx="3" ry="3" pointer-events="none" width="99.8753433227539" height="92.25554275512695" transform="matrix(1,0,0,1,-49.9,-46.2)"></rect><text joint-selector="text" id="v-3650" font-size="24px" xml:space="preserve" y="0.8em" fill="#707070" text-anchor="middle" pointer-events="none" font-family="Open Sans" font-weight="normal" transform="matrix(1,0,0,1,0,-38.4)"><tspan dy="0" >Reserves</tspan><tspan dy="1.2em" x="0" >resource</tspan><tspan dy="1.2em" x="0" >partition</tspan></text></g><g id="v-3649"  label-idx="1" cursor="move" transform="matrix(1,0,0,1,3059.5,1906)" style="cursor: default; opacity: 1;"><rect joint-selector="rect" id="v-3653" fill="#ffffff" rx="3" ry="3"  width="0" height="0" transform="matrix(1,0,0,1,0,0)" display="none"></rect><text joint-selector="text" id="v-3652" fill="#000000" font-size="14" text-anchor="middle" pointer-events="none"></text></g></g><g  display="none" style="display: none;"></g><g  id="v-3658" display="none"><g  id="v-3646"><path  end="source" d="M 26 0 L 0 13 L 26 26 z"></path></g><g  id="v-3647"><path  end="target" d="M 26 0 L 0 13 L 26 26 z"></path></g></g><g  id="v-3657" display="none"><g  id="v-3645" transform="translate(2913.234752377721, 1723.9878019021771) "><g  event="remove"><circle r="11"></circle><path transform="scale(.8) translate(-16, -16)" d="M24.778,21.419 19.276,15.917 24.777,10.415 21.949,7.585 16.447,13.087 10.945,7.585 8.117,10.415 13.618,15.917 8.116,21.419 10.946,24.248 16.447,18.746 21.948,24.248z"></path><title>Remove link.</title></g><g  event="link:options"><circle r="11" transform="translate(25)"></circle><path fill="white" transform="scale(.55) translate(29, -16)" d="M31.229,17.736c0.064-0.571,0.104-1.148,0.104-1.736s-0.04-1.166-0.104-1.737l-4.377-1.557c-0.218-0.716-0.504-1.401-0.851-2.05l1.993-4.192c-0.725-0.91-1.549-1.734-2.458-2.459l-4.193,1.994c-0.647-0.347-1.334-0.632-2.049-0.849l-1.558-4.378C17.165,0.708,16.588,0.667,16,0.667s-1.166,0.041-1.737,0.105L12.707,5.15c-0.716,0.217-1.401,0.502-2.05,0.849L6.464,4.005C5.554,4.73,4.73,5.554,4.005,6.464l1.994,4.192c-0.347,0.648-0.632,1.334-0.849,2.05l-4.378,1.557C0.708,14.834,0.667,15.412,0.667,16s0.041,1.165,0.105,1.736l4.378,1.558c0.217,0.715,0.502,1.401,0.849,2.049l-1.994,4.193c0.725,0.909,1.549,1.733,2.459,2.458l4.192-1.993c0.648,0.347,1.334,0.633,2.05,0.851l1.557,4.377c0.571,0.064,1.148,0.104,1.737,0.104c0.588,0,1.165-0.04,1.736-0.104l1.558-4.377c0.715-0.218,1.399-0.504,2.049-0.851l4.193,1.993c0.909-0.725,1.733-1.549,2.458-2.458l-1.993-4.193c0.347-0.647,0.633-1.334,0.851-2.049L31.229,17.736zM16,20.871c-2.69,0-4.872-2.182-4.872-4.871c0-2.69,2.182-4.872,4.872-4.872c2.689,0,4.871,2.182,4.871,4.872C20.871,18.689,18.689,20.871,16,20.871z"></path><title>Link options.</title></g></g></g></g><g   id="j_296" ><path  stroke="#707070" d="M 2919 1610 L 4342 1996 C 4348.666666666666 1997.9999999999998 4355 1999.9999999999998 4361 2002 L 4577 2074" id="v-3675" stroke-width="2" stroke-dasharray="30 30" fill="none" style="opacity: 1;"></path><path  fill="black" stroke="black" d="M 0 0 0 0" transform="matrix(0.9650858939409478,0.26193361242154767,-0.26193361242154767,0.9650858939409478,2919,1610.0699462890625)"></path><path  fill="#707070" stroke="#707070" d="M 20 0 L 0 10 L 20 20 z" id="v-3677" transform="matrix(-0.9486832817174724,-0.3162278150159579,0.3162278150159579,-0.9486832817174724,4573.837738260765,2083.4867574517093)" style="opacity: 1;"></path><path  d="M 2919 1610 L 4342 1996 C 4348.666666666666 1997.9999999999998 4355 1999.9999999999998 4361 2002 L 4577 2074" id="v-3676" fill="none" style="cursor: auto; pointer-events: visiblepainted;"></path><g ><g id="v-3666"  label-idx="0" cursor="move" transform="matrix(1,0,0,1,3749.98681640625,1835.4117431640625)" style="cursor: default; opacity: 1;"><rect joint-selector="rect" id="v-3670" fill="#ffffff" rx="3" ry="3" pointer-events="none" width="171.11172485351562" height="92.25554275512695" transform="matrix(1,0,0,1,-85.6,-46.2)"></rect><text joint-selector="text" id="v-3669" font-size="24px" xml:space="preserve" y="0.8em" fill="#707070" text-anchor="middle" pointer-events="none" font-family="Open Sans" font-weight="normal" transform="matrix(1,0,0,1,0,-38.4)"><tspan dy="0" >Executes</tspan><tspan dy="1.2em" x="0" >machine state</tspan><tspan dy="1.2em" x="0" >processing RPC</tspan></text></g><g id="v-3667"  label-idx="1" cursor="move" transform="matrix(1,0,0,1,3749.98681640625,1892.4117431640625)" style="cursor: default; opacity: 1;"><rect joint-selector="rect" id="v-3672" fill="#ffffff" rx="3" ry="3" pointer-events="none" width="92.29444122314453" height="23.315964698791504" transform="matrix(1,0,0,1,-46.1,-11.7)"></rect><text joint-selector="text" id="v-3671" font-size="17px" xml:space="preserve" y="0.8em" fill="#707070" text-anchor="middle" pointer-events="none" font-family="Open Sans" font-weight="normal" transform="matrix(1,0,0,1,0,-6)"><tspan dy="0" >[http, thrift]</tspan></text></g><g id="v-3668"  label-idx="2" cursor="move" transform="matrix(1,0,0,1,3739.98681640625,1901.6617431640625)" style="cursor: default; opacity: 1;"><rect joint-selector="rect" id="v-3674" fill="#ffffff" rx="3" ry="3"  width="0" height="0" transform="matrix(1,0,0,1,0,0)" display="none"></rect><text joint-selector="text" id="v-3673" fill="#000000" font-size="14" text-anchor="middle" pointer-events="none"></text></g></g><g  display="none" style="display: none;"><g  transform="translate(4352, 1999)" id="v-3663"><circle  idx="0" r="10"></circle><path  idx="0" d="M16,5.333c-7.732,0-14,4.701-14,10.5c0,1.982,0.741,3.833,2.016,5.414L2,25.667l5.613-1.441c2.339,1.317,5.237,2.107,8.387,2.107c7.732,0,14-4.701,14-10.5C30,10.034,23.732,5.333,16,5.333z" transform="translate(5, -33)"></path><path  idx="0" transform="scale(.8) translate(9.5, -37)" d="M24.778,21.419 19.276,15.917 24.777,10.415 21.949,7.585 16.447,13.087 10.945,7.585 8.117,10.415 13.618,15.917 8.116,21.419 10.946,24.248 16.447,18.746 21.948,24.248z"><title>Remove vertex.</title></path></g></g><g  id="v-3679" display="none"><g  id="v-3664"><path  end="source" d="M 26 0 L 0 13 L 26 26 z"></path></g><g  id="v-3665"><path  end="target" d="M 26 0 L 0 13 L 26 26 z"></path></g></g><g  id="v-3678" display="none"><g  id="v-3662" transform="translate(2957.604916100576, 1620.4718886962912) "><g  event="remove"><circle r="11"></circle><path transform="scale(.8) translate(-16, -16)" d="M24.778,21.419 19.276,15.917 24.777,10.415 21.949,7.585 16.447,13.087 10.945,7.585 8.117,10.415 13.618,15.917 8.116,21.419 10.946,24.248 16.447,18.746 21.948,24.248z"></path><title>Remove link.</title></g><g  event="link:options"><circle r="11" transform="translate(25)"></circle><path fill="white" transform="scale(.55) translate(29, -16)" d="M31.229,17.736c0.064-0.571,0.104-1.148,0.104-1.736s-0.04-1.166-0.104-1.737l-4.377-1.557c-0.218-0.716-0.504-1.401-0.851-2.05l1.993-4.192c-0.725-0.91-1.549-1.734-2.458-2.459l-4.193,1.994c-0.647-0.347-1.334-0.632-2.049-0.849l-1.558-4.378C17.165,0.708,16.588,0.667,16,0.667s-1.166,0.041-1.737,0.105L12.707,5.15c-0.716,0.217-1.401,0.502-2.05,0.849L6.464,4.005C5.554,4.73,4.73,5.554,4.005,6.464l1.994,4.192c-0.347,0.648-0.632,1.334-0.849,2.05l-4.378,1.557C0.708,14.834,0.667,15.412,0.667,16s0.041,1.165,0.105,1.736l4.378,1.558c0.217,0.715,0.502,1.401,0.849,2.049l-1.994,4.193c0.725,0.909,1.549,1.733,2.459,2.458l4.192-1.993c0.648,0.347,1.334,0.633,2.05,0.851l1.557,4.377c0.571,0.064,1.148,0.104,1.737,0.104c0.588,0,1.165-0.04,1.736-0.104l1.558-4.377c0.715-0.218,1.399-0.504,2.049-0.851l4.193,1.993c0.909-0.725,1.733-1.549,2.458-2.458l-1.993-4.193c0.347-0.647,0.633-1.334,0.851-2.049L31.229,17.736zM16,20.871c-2.69,0-4.872-2.182-4.872-4.871c0-2.69,2.182-4.872,4.872-4.872c2.689,0,4.871,2.182,4.871,4.872C20.871,18.689,18.689,20.871,16,20.871z"></path><title>Link options.</title></g></g></g></g><g   id="j_297" ><path  stroke="#707070" d="M 1415 2299 L 1561 2397 C 1566.3333333333333 2401 1572.3333333333333 2403.6666666666665 1579 2405 L 2806 2696" id="v-3693" stroke-width="2" stroke-dasharray="30 30" fill="none" style="opacity: 1;"></path><path  fill="black" stroke="black" d="M 0 0 0 0" transform="matrix(0.8279461497068891,0.5608076079954137,-0.5608076079954137,0.8279461497068891,1415.4599609375,2299)"></path><path  fill="#707070" stroke="#707070" d="M 20 0 L 0 10 L 20 20 z" id="v-3695" transform="matrix(-0.9731197067311151,-0.23029988356824754,0.23029988356824754,-0.9731197067311151,2803.696997059754,2705.481217387369)" style="opacity: 1;"></path><path  d="M 1415 2299 L 1561 2397 C 1566.3333333333333 2401 1572.3333333333333 2403.6666666666665 1579 2405 L 2806 2696" id="v-3694" fill="none" style="cursor: auto; pointer-events: visiblepainted;"></path><g ><g id="v-3684"  label-idx="0" cursor="move" transform="matrix(1,0,0,1,2097.289306640625,2527.91943359375)" style="cursor: default; opacity: 1;"><rect joint-selector="rect" id="v-3688" fill="#ffffff" rx="3" ry="3" pointer-events="none" width="104.50811004638672" height="34.65554237365723" transform="matrix(1,0,0,1,-52.3,-17.4)"></rect><text joint-selector="text" id="v-3687" font-size="24px" xml:space="preserve" y="0.8em" fill="#707070" text-anchor="middle" pointer-events="none" font-family="Open Sans" font-weight="normal" transform="matrix(1,0,0,1,0,-9.6)"><tspan dy="0" >Produces</tspan></text></g><g id="v-3685"  label-idx="1" cursor="move" transform="matrix(1,0,0,1,2097.289306640625,2554.91943359375)" style="cursor: default; opacity: 1;"><rect joint-selector="rect" id="v-3690" fill="#ffffff" rx="3" ry="3" pointer-events="none" width="50.59949493408203" height="23.103692054748535" transform="matrix(1,0,0,1,-25.3,-11.6)"></rect><text joint-selector="text" id="v-3689" font-size="17px" xml:space="preserve" y="0.8em" fill="#707070" text-anchor="middle" pointer-events="none" font-family="Open Sans" font-weight="normal" transform="matrix(1,0,0,1,0,-5.9)"><tspan dy="0" >[thrift]</tspan></text></g><g id="v-3686"  label-idx="2" cursor="move" transform="matrix(1,0,0,1,2087.289306640625,2564.16943359375)" style="cursor: default; opacity: 1;"><rect joint-selector="rect" id="v-3692" fill="#ffffff" rx="3" ry="3"  width="0" height="0" transform="matrix(1,0,0,1,0,0)" display="none"></rect><text joint-selector="text" id="v-3691" fill="#000000" font-size="14" text-anchor="middle" pointer-events="none"></text></g></g><g  display="none" style="display: none;"><g  transform="translate(1569, 2403)" id="v-3681"><circle  idx="0" r="10"></circle><path  idx="0" d="M16,5.333c-7.732,0-14,4.701-14,10.5c0,1.982,0.741,3.833,2.016,5.414L2,25.667l5.613-1.441c2.339,1.317,5.237,2.107,8.387,2.107c7.732,0,14-4.701,14-10.5C30,10.034,23.732,5.333,16,5.333z" transform="translate(5, -33)"></path><path  idx="0" transform="scale(.8) translate(9.5, -37)" d="M24.778,21.419 19.276,15.917 24.777,10.415 21.949,7.585 16.447,13.087 10.945,7.585 8.117,10.415 13.618,15.917 8.116,21.419 10.946,24.248 16.447,18.746 21.948,24.248z"><title>Remove vertex.</title></path></g></g><g  id="v-3697" display="none"><g  id="v-3682"><path  end="source" d="M 26 0 L 0 13 L 26 26 z"></path></g><g  id="v-3683"><path  end="target" d="M 26 0 L 0 13 L 26 26 z"></path></g></g><g  id="v-3696" display="none"><g  id="v-3680" transform="translate(1448.211852807127, 2321.292887500674) "><g  event="remove"><circle r="11"></circle><path transform="scale(.8) translate(-16, -16)" d="M24.778,21.419 19.276,15.917 24.777,10.415 21.949,7.585 16.447,13.087 10.945,7.585 8.117,10.415 13.618,15.917 8.116,21.419 10.946,24.248 16.447,18.746 21.948,24.248z"></path><title>Remove link.</title></g><g  event="link:options"><circle r="11" transform="translate(25)"></circle><path fill="white" transform="scale(.55) translate(29, -16)" d="M31.229,17.736c0.064-0.571,0.104-1.148,0.104-1.736s-0.04-1.166-0.104-1.737l-4.377-1.557c-0.218-0.716-0.504-1.401-0.851-2.05l1.993-4.192c-0.725-0.91-1.549-1.734-2.458-2.459l-4.193,1.994c-0.647-0.347-1.334-0.632-2.049-0.849l-1.558-4.378C17.165,0.708,16.588,0.667,16,0.667s-1.166,0.041-1.737,0.105L12.707,5.15c-0.716,0.217-1.401,0.502-2.05,0.849L6.464,4.005C5.554,4.73,4.73,5.554,4.005,6.464l1.994,4.192c-0.347,0.648-0.632,1.334-0.849,2.05l-4.378,1.557C0.708,14.834,0.667,15.412,0.667,16s0.041,1.165,0.105,1.736l4.378,1.558c0.217,0.715,0.502,1.401,0.849,2.049l-1.994,4.193c0.725,0.909,1.549,1.733,2.459,2.458l4.192-1.993c0.648,0.347,1.334,0.633,2.05,0.851l1.557,4.377c0.571,0.064,1.148,0.104,1.737,0.104c0.588,0,1.165-0.04,1.736-0.104l1.558-4.377c0.715-0.218,1.399-0.504,2.049-0.851l4.193,1.993c0.909-0.725,1.733-1.549,2.458-2.458l-1.993-4.193c0.347-0.647,0.633-1.334,0.851-2.049L31.229,17.736zM16,20.871c-2.69,0-4.872-2.182-4.872-4.871c0-2.69,2.182-4.872,4.872-4.872c2.689,0,4.871,2.182,4.871,4.872C20.871,18.689,18.689,20.871,16,20.871z"></path><title>Link options.</title></g></g></g></g><g   id="j_298" ><path  stroke="#707070" d="M 4577 2021 L 2919 1077" id="v-3713" stroke-width="2" stroke-dasharray="30 30" fill="none" style="opacity: 1;"></path><path  fill="black" stroke="black" d="M 0 0 0 0" transform="matrix(-0.8690522751431701,-0.4947202674931357,0.4947202674931357,-0.8690522751431701,4577,2020.9200439453125)"></path><path  fill="#707070" stroke="#707070" d="M 20 0 L 0 10 L 20 20 z" id="v-3715" transform="matrix(0.869052242205174,0.49472032535378985,-0.49472032535378985,0.869052242205174,2923.947110518986,1068.3894960040977)" style="opacity: 1;"></path><path  d="M 4577 2021 L 2919 1077" id="v-3714" fill="none" style="cursor: auto; pointer-events: visiblepainted;"></path><g ><g id="v-3704"  label-idx="0" cursor="move" transform="matrix(1,0,0,1,3748,1549)" style="cursor: default; opacity: 1;"><rect joint-selector="rect" id="v-3708" fill="#ffffff" rx="3" ry="3" pointer-events="none" width="149.63250732421875" height="34.65554237365723" transform="matrix(1,0,0,1,-74.8,-17.4)"></rect><text joint-selector="text" id="v-3707" font-size="24px" xml:space="preserve" y="0.8em" fill="#707070" text-anchor="middle" pointer-events="none" font-family="Open Sans" font-weight="normal" transform="matrix(1,0,0,1,0,-9.6)"><tspan dy="0" >Executes RPC</tspan></text></g><g id="v-3705"  label-idx="1" cursor="move" transform="matrix(1,0,0,1,3748,1576)" style="cursor: default; opacity: 1;"><rect joint-selector="rect" id="v-3710" fill="#ffffff" rx="3" ry="3" pointer-events="none" width="92.29444122314453" height="23.315964698791504" transform="matrix(1,0,0,1,-46.1,-11.7)"></rect><text joint-selector="text" id="v-3709" font-size="17px" xml:space="preserve" y="0.8em" fill="#707070" text-anchor="middle" pointer-events="none" font-family="Open Sans" font-weight="normal" transform="matrix(1,0,0,1,0,-6)"><tspan dy="0" >[http, thrift]</tspan></text></g><g id="v-3706"  label-idx="2" cursor="move" transform="matrix(1,0,0,1,3738,1585.25)" style="cursor: default; opacity: 1;"><rect joint-selector="rect" id="v-3712" fill="#ffffff" rx="3" ry="3"  width="0" height="0" transform="matrix(1,0,0,1,0,0)" display="none"></rect><text joint-selector="text" id="v-3711" fill="#000000" font-size="14" text-anchor="middle" pointer-events="none"></text></g></g><g  display="none" style="display: none;"></g><g  id="v-3717" display="none"><g  id="v-3702"><path  end="source" d="M 26 0 L 0 13 L 26 26 z"></path></g><g  id="v-3703"><path  end="target" d="M 26 0 L 0 13 L 26 26 z"></path></g></g><g  id="v-3716" display="none"><g  id="v-3701" transform="translate(4542.239352292446, 2001.2086541399694) "><g  event="remove"><circle r="11"></circle><path transform="scale(.8) translate(-16, -16)" d="M24.778,21.419 19.276,15.917 24.777,10.415 21.949,7.585 16.447,13.087 10.945,7.585 8.117,10.415 13.618,15.917 8.116,21.419 10.946,24.248 16.447,18.746 21.948,24.248z"></path><title>Remove link.</title></g><g  event="link:options"><circle r="11" transform="translate(25)"></circle><path fill="white" transform="scale(.55) translate(29, -16)" d="M31.229,17.736c0.064-0.571,0.104-1.148,0.104-1.736s-0.04-1.166-0.104-1.737l-4.377-1.557c-0.218-0.716-0.504-1.401-0.851-2.05l1.993-4.192c-0.725-0.91-1.549-1.734-2.458-2.459l-4.193,1.994c-0.647-0.347-1.334-0.632-2.049-0.849l-1.558-4.378C17.165,0.708,16.588,0.667,16,0.667s-1.166,0.041-1.737,0.105L12.707,5.15c-0.716,0.217-1.401,0.502-2.05,0.849L6.464,4.005C5.554,4.73,4.73,5.554,4.005,6.464l1.994,4.192c-0.347,0.648-0.632,1.334-0.849,2.05l-4.378,1.557C0.708,14.834,0.667,15.412,0.667,16s0.041,1.165,0.105,1.736l4.378,1.558c0.217,0.715,0.502,1.401,0.849,2.049l-1.994,4.193c0.725,0.909,1.549,1.733,2.459,2.458l4.192-1.993c0.648,0.347,1.334,0.633,2.05,0.851l1.557,4.377c0.571,0.064,1.148,0.104,1.737,0.104c0.588,0,1.165-0.04,1.736-0.104l1.558-4.377c0.715-0.218,1.399-0.504,2.049-0.851l4.193,1.993c0.909-0.725,1.733-1.549,2.458-2.458l-1.993-4.193c0.347-0.647,0.633-1.334,0.851-2.049L31.229,17.736zM16,20.871c-2.69,0-4.872-2.182-4.872-4.871c0-2.69,2.182-4.872,4.872-4.872c2.689,0,4.871,2.182,4.871,4.872C20.871,18.689,18.689,20.871,16,20.871z"></path><title>Link options.</title></g></g></g></g><g   id="j_299" ><path  stroke="#707070" d="M 2469 1639 L 1419 2059" id="v-3733" stroke-width="2" stroke-dasharray="30 30" fill="none" style="opacity: 1;"></path><path  fill="black" stroke="black" d="M 0 0 0 0" transform="matrix(-0.928476707906966,0.37139063379983406,-0.37139063379983406,-0.928476707906966,2469,1639)"></path><path  fill="#707070" stroke="#707070" d="M 20 0 L 0 10 L 20 20 z" id="v-3735" transform="matrix(0.9284766089996245,-0.3713908810681253,0.3713908810681253,0.9284766089996245,1415.2861151383847,2049.715275533185)" style="opacity: 1;"></path><path  d="M 2469 1639 L 1419 2059" id="v-3734" fill="none" style="cursor: auto; pointer-events: visiblepainted;"></path><g ><g id="v-3724"  label-idx="0" cursor="move" transform="matrix(1,0,0,1,1944,1849)" style="cursor: default; opacity: 1;"><rect joint-selector="rect" id="v-3728" fill="#ffffff" rx="3" ry="3" pointer-events="none" width="177.79013061523438" height="63.45554161071777" transform="matrix(1,0,0,1,-88.9,-31.8)"></rect><text joint-selector="text" id="v-3727" font-size="24px" xml:space="preserve" y="0.8em" fill="#707070" text-anchor="middle" pointer-events="none" font-family="Open Sans" font-weight="normal" transform="matrix(1,0,0,1,0,-24)"><tspan dy="0" >Publishes</tspan><tspan dy="1.2em" x="0" >business events</tspan></text></g><g id="v-3725"  label-idx="1" cursor="move" transform="matrix(1,0,0,1,1944,1891)" style="cursor: default; opacity: 1;"><rect joint-selector="rect" id="v-3730" fill="#ffffff" rx="3" ry="3" pointer-events="none" width="60.94802474975586" height="23.332547187805176" transform="matrix(1,0,0,1,-30.5,-11.7)"></rect><text joint-selector="text" id="v-3729" font-size="17px" xml:space="preserve" y="0.8em" fill="#707070" text-anchor="middle" pointer-events="none" font-family="Open Sans" font-weight="normal" transform="matrix(1,0,0,1,0,-6)"><tspan dy="0" >[erlang]</tspan></text></g><g id="v-3726"  label-idx="2" cursor="move" transform="matrix(1,0,0,1,1934,1900.25)" style="cursor: default; opacity: 1;"><rect joint-selector="rect" id="v-3732" fill="#ffffff" rx="3" ry="3"  width="0" height="0" transform="matrix(1,0,0,1,0,0)" display="none"></rect><text joint-selector="text" id="v-3731" fill="#000000" font-size="14" text-anchor="middle" pointer-events="none"></text></g></g><g  display="none" style="display: none;"></g><g  id="v-3737" display="none"><g  id="v-3722"><path  end="source" d="M 26 0 L 0 13 L 26 26 z"></path></g><g  id="v-3723"><path  end="target" d="M 26 0 L 0 13 L 26 26 z"></path></g></g><g  id="v-3736" display="none"><g  id="v-3721" transform="translate(2431.860932364589, 1653.8556270541642) "><g  event="remove"><circle r="11"></circle><path transform="scale(.8) translate(-16, -16)" d="M24.778,21.419 19.276,15.917 24.777,10.415 21.949,7.585 16.447,13.087 10.945,7.585 8.117,10.415 13.618,15.917 8.116,21.419 10.946,24.248 16.447,18.746 21.948,24.248z"></path><title>Remove link.</title></g><g  event="link:options"><circle r="11" transform="translate(25)"></circle><path fill="white" transform="scale(.55) translate(29, -16)" d="M31.229,17.736c0.064-0.571,0.104-1.148,0.104-1.736s-0.04-1.166-0.104-1.737l-4.377-1.557c-0.218-0.716-0.504-1.401-0.851-2.05l1.993-4.192c-0.725-0.91-1.549-1.734-2.458-2.459l-4.193,1.994c-0.647-0.347-1.334-0.632-2.049-0.849l-1.558-4.378C17.165,0.708,16.588,0.667,16,0.667s-1.166,0.041-1.737,0.105L12.707,5.15c-0.716,0.217-1.401,0.502-2.05,0.849L6.464,4.005C5.554,4.73,4.73,5.554,4.005,6.464l1.994,4.192c-0.347,0.648-0.632,1.334-0.849,2.05l-4.378,1.557C0.708,14.834,0.667,15.412,0.667,16s0.041,1.165,0.105,1.736l4.378,1.558c0.217,0.715,0.502,1.401,0.849,2.049l-1.994,4.193c0.725,0.909,1.549,1.733,2.459,2.458l4.192-1.993c0.648,0.347,1.334,0.633,2.05,0.851l1.557,4.377c0.571,0.064,1.148,0.104,1.737,0.104c0.588,0,1.165-0.04,1.736-0.104l1.558-4.377c0.715-0.218,1.399-0.504,2.049-0.851l4.193,1.993c0.909-0.725,1.733-1.549,2.458-2.458l-1.993-4.193c0.347-0.647,0.633-1.334,0.851-2.049L31.229,17.736zM16,20.871c-2.69,0-4.872-2.182-4.872-4.871c0-2.69,2.182-4.872,4.872-4.872c2.689,0,4.871,2.182,4.871,4.872C20.871,18.689,18.689,20.871,16,20.871z"></path><title>Link options.</title></g></g></g></g><g   id="j_300" ><path  stroke="#707070" d="M 2469 1603 L 829 1997 C 822.3333333333333 1998.333333333333 816 2000.333333333333 810 2003 L 669 2059" id="v-3754" stroke-width="2" stroke-dasharray="30 30" fill="none" style="opacity: 1;"></path><path  fill="black" stroke="black" d="M 0 0 0 0" transform="matrix(-0.9723873253673182,0.2333728550302998,-0.2333728550302998,-0.9723873253673182,2469,1603)"></path><path  fill="#707070" stroke="#707070" d="M 20 0 L 0 10 L 20 20 z" id="v-3756" transform="matrix(0.9284766089996245,-0.3713908810681253,0.3713908810681253,0.9284766089996245,665.2861151383847,2049.715275533185)" style="opacity: 1;"></path><path  d="M 2469 1603 L 829 1997 C 822.3333333333333 1998.333333333333 816 2000.333333333333 810 2003 L 669 2059" id="v-3755" fill="none" style="cursor: auto; pointer-events: visiblepainted;"></path><g ><g id="v-3745"  label-idx="0" cursor="move" transform="matrix(1,0,0,1,1565.5364990234375,1820.0516357421875)" style="cursor: default; opacity: 1;"><rect joint-selector="rect" id="v-3749" fill="#ffffff" rx="3" ry="3" pointer-events="none" width="177.79013061523438" height="63.45554161071777" transform="matrix(1,0,0,1,-88.9,-31.8)"></rect><text joint-selector="text" id="v-3748" font-size="24px" xml:space="preserve" y="0.8em" fill="#707070" text-anchor="middle" pointer-events="none" font-family="Open Sans" font-weight="normal" transform="matrix(1,0,0,1,0,-24)"><tspan dy="0" >Publishes</tspan><tspan dy="1.2em" x="0" >business events</tspan></text></g><g id="v-3746"  label-idx="1" cursor="move" transform="matrix(1,0,0,1,1565.5364990234375,1862.0516357421875)" style="cursor: default; opacity: 1;"><rect joint-selector="rect" id="v-3751" fill="#ffffff" rx="3" ry="3" pointer-events="none" width="60.94802474975586" height="23.332547187805176" transform="matrix(1,0,0,1,-30.5,-11.7)"></rect><text joint-selector="text" id="v-3750" font-size="17px" xml:space="preserve" y="0.8em" fill="#707070" text-anchor="middle" pointer-events="none" font-family="Open Sans" font-weight="normal" transform="matrix(1,0,0,1,0,-6)"><tspan dy="0" >[erlang]</tspan></text></g><g id="v-3747"  label-idx="2" cursor="move" transform="matrix(1,0,0,1,1555.5364990234375,1871.3016357421875)" style="cursor: default; opacity: 1;"><rect joint-selector="rect" id="v-3753" fill="#ffffff" rx="3" ry="3"  width="0" height="0" transform="matrix(1,0,0,1,0,0)" display="none"></rect><text joint-selector="text" id="v-3752" fill="#000000" font-size="14" text-anchor="middle" pointer-events="none"></text></g></g><g  display="none" style="display: none;"><g  transform="translate(819, 1999)" id="v-3742"><circle  idx="0" r="10"></circle><path  idx="0" d="M16,5.333c-7.732,0-14,4.701-14,10.5c0,1.982,0.741,3.833,2.016,5.414L2,25.667l5.613-1.441c2.339,1.317,5.237,2.107,8.387,2.107c7.732,0,14-4.701,14-10.5C30,10.034,23.732,5.333,16,5.333z" transform="translate(5, -33)"></path><path  idx="0" transform="scale(.8) translate(9.5, -37)" d="M24.778,21.419 19.276,15.917 24.777,10.415 21.949,7.585 16.447,13.087 10.945,7.585 8.117,10.415 13.618,15.917 8.116,21.419 10.946,24.248 16.447,18.746 21.948,24.248z"><title>Remove vertex.</title></path></g></g><g  id="v-3758" display="none"><g  id="v-3743"><path  end="source" d="M 26 0 L 0 13 L 26 26 z"></path></g><g  id="v-3744"><path  end="target" d="M 26 0 L 0 13 L 26 26 z"></path></g></g><g  id="v-3757" display="none"><g  id="v-3741" transform="translate(2430.1066616433645, 1612.3438873856796) "><g  event="remove"><circle r="11"></circle><path transform="scale(.8) translate(-16, -16)" d="M24.778,21.419 19.276,15.917 24.777,10.415 21.949,7.585 16.447,13.087 10.945,7.585 8.117,10.415 13.618,15.917 8.116,21.419 10.946,24.248 16.447,18.746 21.948,24.248z"></path><title>Remove link.</title></g><g  event="link:options"><circle r="11" transform="translate(25)"></circle><path fill="white" transform="scale(.55) translate(29, -16)" d="M31.229,17.736c0.064-0.571,0.104-1.148,0.104-1.736s-0.04-1.166-0.104-1.737l-4.377-1.557c-0.218-0.716-0.504-1.401-0.851-2.05l1.993-4.192c-0.725-0.91-1.549-1.734-2.458-2.459l-4.193,1.994c-0.647-0.347-1.334-0.632-2.049-0.849l-1.558-4.378C17.165,0.708,16.588,0.667,16,0.667s-1.166,0.041-1.737,0.105L12.707,5.15c-0.716,0.217-1.401,0.502-2.05,0.849L6.464,4.005C5.554,4.73,4.73,5.554,4.005,6.464l1.994,4.192c-0.347,0.648-0.632,1.334-0.849,2.05l-4.378,1.557C0.708,14.834,0.667,15.412,0.667,16s0.041,1.165,0.105,1.736l4.378,1.558c0.217,0.715,0.502,1.401,0.849,2.049l-1.994,4.193c0.725,0.909,1.549,1.733,2.459,2.458l4.192-1.993c0.648,0.347,1.334,0.633,2.05,0.851l1.557,4.377c0.571,0.064,1.148,0.104,1.737,0.104c0.588,0,1.165-0.04,1.736-0.104l1.558-4.377c0.715-0.218,1.399-0.504,2.049-0.851l4.193,1.993c0.909-0.725,1.733-1.549,2.458-2.458l-1.993-4.193c0.347-0.647,0.633-1.334,0.851-2.049L31.229,17.736zM16,20.871c-2.69,0-4.872-2.182-4.872-4.871c0-2.69,2.182-4.872,4.872-4.872c2.689,0,4.871,2.182,4.871,4.872C20.871,18.689,18.689,20.871,16,20.871z"></path><title>Link options.</title></g></g></g></g><g   id="j_301" ><path  stroke="#707070" d="M 2919 416 L 3838 692 C 3844.666666666666 694 3850.333333333333 697.3333333333333 3855 702 L 5170 1992 C 5174.666666666666 1996.6666666666665 5177 2002.333333333333 5177 2009 L 5177 2393 C 5177 2399.6666666666665 5173.666666666666 2403.6666666666665 5167 2405 L 3256 2713" id="v-3774" stroke-width="2" stroke-dasharray="30 30" fill="none" style="opacity: 1;"></path><path  fill="black" stroke="black" d="M 0 0 0 0" transform="matrix(0.9578716753937473,0.28719654155016483,-0.28719654155016483,0.9578716753937473,2919,416.4599914550781)"></path><path  fill="#707070" stroke="#707070" d="M 20 0 L 0 10 L 20 20 z" id="v-3776" transform="matrix(0.987250684743445,-0.1591731305013476,0.1591731305013476,0.987250684743445,3254.408320441302,2702.847398285704)" style="opacity: 1;"></path><path  d="M 2919 416 L 3838 692 C 3844.666666666666 694 3850.333333333333 697.3333333333333 3855 702 L 5170 1992 C 5174.666666666666 1996.6666666666665 5177 2002.333333333333 5177 2009 L 5177 2393 C 5177 2399.6666666666665 5173.666666666666 2403.6666666666665 5167 2405 L 3256 2713" id="v-3775" fill="none" style="cursor: auto; pointer-events: visiblepainted;"></path><g ><g id="v-3765"  label-idx="0" cursor="move" transform="matrix(1,0,0,1,5003.7431640625,1828.9036865234375)" style="cursor: default; opacity: 1;"><rect joint-selector="rect" id="v-3769" fill="#ffffff" rx="3" ry="3" pointer-events="none" width="67.74676513671875" height="34.65554237365723" transform="matrix(1,0,0,1,-33.9,-17.4)"></rect><text joint-selector="text" id="v-3768" font-size="24px" xml:space="preserve" y="0.8em" fill="#707070" text-anchor="middle" pointer-events="none" font-family="Open Sans" font-weight="normal" transform="matrix(1,0,0,1,0,-9.6)"><tspan dy="0" >Reads</tspan></text></g><g id="v-3766"  label-idx="1" cursor="move" transform="matrix(1,0,0,1,5003.7431640625,1855.9036865234375)" style="cursor: default; opacity: 1;"><rect joint-selector="rect" id="v-3771" fill="#ffffff" rx="3" ry="3" pointer-events="none" width="101.8608169555664" height="23.103692054748535" transform="matrix(1,0,0,1,-50.9,-11.6)"></rect><text joint-selector="text" id="v-3770" font-size="17px" xml:space="preserve" y="0.8em" fill="#707070" text-anchor="middle" pointer-events="none" font-family="Open Sans" font-weight="normal" transform="matrix(1,0,0,1,0,-5.9)"><tspan dy="0" >[kafka, thrift]</tspan></text></g><g id="v-3767"  label-idx="2" cursor="move" transform="matrix(1,0,0,1,4993.7431640625,1865.1536865234375)" style="cursor: default; opacity: 1;"><rect joint-selector="rect" id="v-3773" fill="#ffffff" rx="3" ry="3"  width="0" height="0" transform="matrix(1,0,0,1,0,0)" display="none"></rect><text joint-selector="text" id="v-3772" fill="#000000" font-size="14" text-anchor="middle" pointer-events="none"></text></g></g><g  display="none" style="display: none;"><g  transform="translate(3848, 695)" id="v-3760"><circle  idx="0" r="10"></circle><path  idx="0" d="M16,5.333c-7.732,0-14,4.701-14,10.5c0,1.982,0.741,3.833,2.016,5.414L2,25.667l5.613-1.441c2.339,1.317,5.237,2.107,8.387,2.107c7.732,0,14-4.701,14-10.5C30,10.034,23.732,5.333,16,5.333z" transform="translate(5, -33)"></path><path  idx="0" transform="scale(.8) translate(9.5, -37)" d="M24.778,21.419 19.276,15.917 24.777,10.415 21.949,7.585 16.447,13.087 10.945,7.585 8.117,10.415 13.618,15.917 8.116,21.419 10.946,24.248 16.447,18.746 21.948,24.248z"><title>Remove vertex.</title></path></g><g  transform="translate(5177, 1999)" id="v-3761"><circle  idx="1" r="10"></circle><path  idx="1" d="M16,5.333c-7.732,0-14,4.701-14,10.5c0,1.982,0.741,3.833,2.016,5.414L2,25.667l5.613-1.441c2.339,1.317,5.237,2.107,8.387,2.107c7.732,0,14-4.701,14-10.5C30,10.034,23.732,5.333,16,5.333z" transform="translate(5, -33)"></path><path  idx="1" transform="scale(.8) translate(9.5, -37)" d="M24.778,21.419 19.276,15.917 24.777,10.415 21.949,7.585 16.447,13.087 10.945,7.585 8.117,10.415 13.618,15.917 8.116,21.419 10.946,24.248 16.447,18.746 21.948,24.248z"><title>Remove vertex.</title></path></g><g  transform="translate(5177, 2403)" id="v-3762"><circle  idx="2" r="10"></circle><path  idx="2" d="M16,5.333c-7.732,0-14,4.701-14,10.5c0,1.982,0.741,3.833,2.016,5.414L2,25.667l5.613-1.441c2.339,1.317,5.237,2.107,8.387,2.107c7.732,0,14-4.701,14-10.5C30,10.034,23.732,5.333,16,5.333z" transform="translate(5, -33)"></path><path  idx="2" transform="scale(.8) translate(9.5, -37)" d="M24.778,21.419 19.276,15.917 24.777,10.415 21.949,7.585 16.447,13.087 10.945,7.585 8.117,10.415 13.618,15.917 8.116,21.419 10.946,24.248 16.447,18.746 21.948,24.248z"><title>Remove vertex.</title></path></g></g><g  id="v-3778" display="none"><g  id="v-3763"><path  end="source" d="M 26 0 L 0 13 L 26 26 z"></path></g><g  id="v-3764"><path  end="target" d="M 26 0 L 0 13 L 26 26 z"></path></g></g><g  id="v-3777" display="none"><g  id="v-3759" transform="translate(2957.3096077120385, 427.5053881703185) "><g  event="remove"><circle r="11"></circle><path transform="scale(.8) translate(-16, -16)" d="M24.778,21.419 19.276,15.917 24.777,10.415 21.949,7.585 16.447,13.087 10.945,7.585 8.117,10.415 13.618,15.917 8.116,21.419 10.946,24.248 16.447,18.746 21.948,24.248z"></path><title>Remove link.</title></g><g  event="link:options"><circle r="11" transform="translate(25)"></circle><path fill="white" transform="scale(.55) translate(29, -16)" d="M31.229,17.736c0.064-0.571,0.104-1.148,0.104-1.736s-0.04-1.166-0.104-1.737l-4.377-1.557c-0.218-0.716-0.504-1.401-0.851-2.05l1.993-4.192c-0.725-0.91-1.549-1.734-2.458-2.459l-4.193,1.994c-0.647-0.347-1.334-0.632-2.049-0.849l-1.558-4.378C17.165,0.708,16.588,0.667,16,0.667s-1.166,0.041-1.737,0.105L12.707,5.15c-0.716,0.217-1.401,0.502-2.05,0.849L6.464,4.005C5.554,4.73,4.73,5.554,4.005,6.464l1.994,4.192c-0.347,0.648-0.632,1.334-0.849,2.05l-4.378,1.557C0.708,14.834,0.667,15.412,0.667,16s0.041,1.165,0.105,1.736l4.378,1.558c0.217,0.715,0.502,1.401,0.849,2.049l-1.994,4.193c0.725,0.909,1.549,1.733,2.459,2.458l4.192-1.993c0.648,0.347,1.334,0.633,2.05,0.851l1.557,4.377c0.571,0.064,1.148,0.104,1.737,0.104c0.588,0,1.165-0.04,1.736-0.104l1.558-4.377c0.715-0.218,1.399-0.504,2.049-0.851l4.193,1.993c0.909-0.725,1.733-1.549,2.458-2.458l-1.993-4.193c0.347-0.647,0.633-1.334,0.851-2.049L31.229,17.736zM16,20.871c-2.69,0-4.872-2.182-4.872-4.871c0-2.69,2.182-4.872,4.872-4.872c2.689,0,4.871,2.182,4.871,4.872C20.871,18.689,18.689,20.871,16,20.871z"></path><title>Link options.</title></g></g></g></g><g   id="j_302" ><path  stroke="#707070" d="M 2694 499 L 2694 799" id="v-3794" stroke-width="2" stroke-dasharray="30 30" fill="none" style="opacity: 1;"></path><path  fill="black" stroke="black" d="M 0 0 0 0" transform="matrix(6.123233995736766e-17,1,-1,6.123233995736766e-17,2694,499)"></path><path  fill="#707070" stroke="#707070" d="M 20 0 L 0 10 L 20 20 z" id="v-3796" transform="matrix(-1.8369701987210297e-16,-1,1,-1.8369701987210297e-16,2684,799.0000000000002)" style="opacity: 1;"></path><path  d="M 2694 499 L 2694 799" id="v-3795" fill="none" style="cursor: auto; pointer-events: visiblepainted;"></path><g ><g id="v-3785"  label-idx="0" cursor="move" transform="matrix(1,0,0,1,2694,649)" style="cursor: default; opacity: 1;"><rect joint-selector="rect" id="v-3789" fill="#ffffff" rx="3" ry="3" pointer-events="none" width="149.63250732421875" height="34.65554237365723" transform="matrix(1,0,0,1,-74.8,-17.4)"></rect><text joint-selector="text" id="v-3788" font-size="24px" xml:space="preserve" y="0.8em" fill="#707070" text-anchor="middle" pointer-events="none" font-family="Open Sans" font-weight="normal" transform="matrix(1,0,0,1,0,-9.6)"><tspan dy="0" >Executes RPC</tspan></text></g><g id="v-3786"  label-idx="1" cursor="move" transform="matrix(1,0,0,1,2694,676)" style="cursor: default; opacity: 1;"><rect joint-selector="rect" id="v-3791" fill="#ffffff" rx="3" ry="3" pointer-events="none" width="92.29444122314453" height="23.315964698791504" transform="matrix(1,0,0,1,-46.1,-11.7)"></rect><text joint-selector="text" id="v-3790" font-size="17px" xml:space="preserve" y="0.8em" fill="#707070" text-anchor="middle" pointer-events="none" font-family="Open Sans" font-weight="normal" transform="matrix(1,0,0,1,0,-6)"><tspan dy="0" >[http, thrift]</tspan></text></g><g id="v-3787"  label-idx="2" cursor="move" transform="matrix(1,0,0,1,2684,685.25)" style="cursor: default; opacity: 1;"><rect joint-selector="rect" id="v-3793" fill="#ffffff" rx="3" ry="3"  width="0" height="0" transform="matrix(1,0,0,1,0,0)" display="none"></rect><text joint-selector="text" id="v-3792" fill="#000000" font-size="14" text-anchor="middle" pointer-events="none"></text></g></g><g  display="none" style="display: none;"></g><g  id="v-3798" display="none"><g  id="v-3783"><path  end="source" d="M 26 0 L 0 13 L 26 26 z"></path></g><g  id="v-3784"><path  end="target" d="M 26 0 L 0 13 L 26 26 z"></path></g></g><g  id="v-3797" display="none"><g  id="v-3782" transform="translate(2694, 539) "><g  event="remove"><circle r="11"></circle><path transform="scale(.8) translate(-16, -16)" d="M24.778,21.419 19.276,15.917 24.777,10.415 21.949,7.585 16.447,13.087 10.945,7.585 8.117,10.415 13.618,15.917 8.116,21.419 10.946,24.248 16.447,18.746 21.948,24.248z"></path><title>Remove link.</title></g><g  event="link:options"><circle r="11" transform="translate(25)"></circle><path fill="white" transform="scale(.55) translate(29, -16)" d="M31.229,17.736c0.064-0.571,0.104-1.148,0.104-1.736s-0.04-1.166-0.104-1.737l-4.377-1.557c-0.218-0.716-0.504-1.401-0.851-2.05l1.993-4.192c-0.725-0.91-1.549-1.734-2.458-2.459l-4.193,1.994c-0.647-0.347-1.334-0.632-2.049-0.849l-1.558-4.378C17.165,0.708,16.588,0.667,16,0.667s-1.166,0.041-1.737,0.105L12.707,5.15c-0.716,0.217-1.401,0.502-2.05,0.849L6.464,4.005C5.554,4.73,4.73,5.554,4.005,6.464l1.994,4.192c-0.347,0.648-0.632,1.334-0.849,2.05l-4.378,1.557C0.708,14.834,0.667,15.412,0.667,16s0.041,1.165,0.105,1.736l4.378,1.558c0.217,0.715,0.502,1.401,0.849,2.049l-1.994,4.193c0.725,0.909,1.549,1.733,2.459,2.458l4.192-1.993c0.648,0.347,1.334,0.633,2.05,0.851l1.557,4.377c0.571,0.064,1.148,0.104,1.737,0.104c0.588,0,1.165-0.04,1.736-0.104l1.558-4.377c0.715-0.218,1.399-0.504,2.049-0.851l4.193,1.993c0.909-0.725,1.733-1.549,2.458-2.458l-1.993-4.193c0.347-0.647,0.633-1.334,0.851-2.049L31.229,17.736zM16,20.871c-2.69,0-4.872-2.182-4.872-4.871c0-2.69,2.182-4.872,4.872-4.872c2.689,0,4.871,2.182,4.871,4.872C20.871,18.689,18.689,20.871,16,20.871z"></path><title>Link options.</title></g></g></g></g><g   id="j_303" ><path  stroke="#707070" d="M 2165 2299 L 2311 2397 C 2316.333333333333 2401 2322 2404.333333333333 2328 2407 L 2806 2640" id="v-3812" stroke-width="2" stroke-dasharray="30 30" fill="none" style="opacity: 1;"></path><path  fill="black" stroke="black" d="M 0 0 0 0" transform="matrix(0.8279461497068891,0.5608076079954137,-0.5608076079954137,0.8279461497068891,2165.4599609375,2299)"></path><path  fill="#707070" stroke="#707070" d="M 20 0 L 0 10 L 20 20 z" id="v-3814" transform="matrix(-0.8994230756663194,-0.43707909005000267,0.43707909005000267,-0.8994230756663194,2801.6292992311633,2648.654328297788)" style="opacity: 1;"></path><path  d="M 2165 2299 L 2311 2397 C 2316.333333333333 2401 2322 2404.333333333333 2328 2407 L 2806 2640" id="v-3813" fill="none" style="cursor: auto; pointer-events: visiblepainted;"></path><g ><g id="v-3803"  label-idx="0" cursor="move" transform="matrix(1,0,0,1,2479.086669921875,2480.646728515625)" style="cursor: default; opacity: 1;"><rect joint-selector="rect" id="v-3807" fill="#ffffff" rx="3" ry="3" pointer-events="none" width="104.50811004638672" height="34.65554237365723" transform="matrix(1,0,0,1,-52.3,-17.4)"></rect><text joint-selector="text" id="v-3806" font-size="24px" xml:space="preserve" y="0.8em" fill="#707070" text-anchor="middle" pointer-events="none" font-family="Open Sans" font-weight="normal" transform="matrix(1,0,0,1,0,-9.6)"><tspan dy="0" >Produces</tspan></text></g><g id="v-3804"  label-idx="1" cursor="move" transform="matrix(1,0,0,1,2479.086669921875,2507.646728515625)" style="cursor: default; opacity: 1;"><rect joint-selector="rect" id="v-3809" fill="#ffffff" rx="3" ry="3" pointer-events="none" width="50.59949493408203" height="23.103692054748535" transform="matrix(1,0,0,1,-25.3,-11.6)"></rect><text joint-selector="text" id="v-3808" font-size="17px" xml:space="preserve" y="0.8em" fill="#707070" text-anchor="middle" pointer-events="none" font-family="Open Sans" font-weight="normal" transform="matrix(1,0,0,1,0,-5.9)"><tspan dy="0" >[thrift]</tspan></text></g><g id="v-3805"  label-idx="2" cursor="move" transform="matrix(1,0,0,1,2469.086669921875,2516.896728515625)" style="cursor: default; opacity: 1;"><rect joint-selector="rect" id="v-3811" fill="#ffffff" rx="3" ry="3"  width="0" height="0" transform="matrix(1,0,0,1,0,0)" display="none"></rect><text joint-selector="text" id="v-3810" fill="#000000" font-size="14" text-anchor="middle" pointer-events="none"></text></g></g><g  display="none" style="display: none;"><g  transform="translate(2319, 2403)" id="v-3800"><circle  idx="0" r="10"></circle><path  idx="0" d="M16,5.333c-7.732,0-14,4.701-14,10.5c0,1.982,0.741,3.833,2.016,5.414L2,25.667l5.613-1.441c2.339,1.317,5.237,2.107,8.387,2.107c7.732,0,14-4.701,14-10.5C30,10.034,23.732,5.333,16,5.333z" transform="translate(5, -33)"></path><path  idx="0" transform="scale(.8) translate(9.5, -37)" d="M24.778,21.419 19.276,15.917 24.777,10.415 21.949,7.585 16.447,13.087 10.945,7.585 8.117,10.415 13.618,15.917 8.116,21.419 10.946,24.248 16.447,18.746 21.948,24.248z"><title>Remove vertex.</title></path></g></g><g  id="v-3816" display="none"><g  id="v-3801"><path  end="source" d="M 26 0 L 0 13 L 26 26 z"></path></g><g  id="v-3802"><path  end="target" d="M 26 0 L 0 13 L 26 26 z"></path></g></g><g  id="v-3815" display="none"><g  id="v-3799" transform="translate(2198.211852807127, 2321.292887500674) "><g  event="remove"><circle r="11"></circle><path transform="scale(.8) translate(-16, -16)" d="M24.778,21.419 19.276,15.917 24.777,10.415 21.949,7.585 16.447,13.087 10.945,7.585 8.117,10.415 13.618,15.917 8.116,21.419 10.946,24.248 16.447,18.746 21.948,24.248z"></path><title>Remove link.</title></g><g  event="link:options"><circle r="11" transform="translate(25)"></circle><path fill="white" transform="scale(.55) translate(29, -16)" d="M31.229,17.736c0.064-0.571,0.104-1.148,0.104-1.736s-0.04-1.166-0.104-1.737l-4.377-1.557c-0.218-0.716-0.504-1.401-0.851-2.05l1.993-4.192c-0.725-0.91-1.549-1.734-2.458-2.459l-4.193,1.994c-0.647-0.347-1.334-0.632-2.049-0.849l-1.558-4.378C17.165,0.708,16.588,0.667,16,0.667s-1.166,0.041-1.737,0.105L12.707,5.15c-0.716,0.217-1.401,0.502-2.05,0.849L6.464,4.005C5.554,4.73,4.73,5.554,4.005,6.464l1.994,4.192c-0.347,0.648-0.632,1.334-0.849,2.05l-4.378,1.557C0.708,14.834,0.667,15.412,0.667,16s0.041,1.165,0.105,1.736l4.378,1.558c0.217,0.715,0.502,1.401,0.849,2.049l-1.994,4.193c0.725,0.909,1.549,1.733,2.459,2.458l4.192-1.993c0.648,0.347,1.334,0.633,2.05,0.851l1.557,4.377c0.571,0.064,1.148,0.104,1.737,0.104c0.588,0,1.165-0.04,1.736-0.104l1.558-4.377c0.715-0.218,1.399-0.504,2.049-0.851l4.193,1.993c0.909-0.725,1.733-1.549,2.458-2.458l-1.993-4.193c0.347-0.647,0.633-1.334,0.851-2.049L31.229,17.736zM16,20.871c-2.69,0-4.872-2.182-4.872-4.871c0-2.69,2.182-4.872,4.872-4.872c2.689,0,4.871,2.182,4.871,4.872C20.871,18.689,18.689,20.871,16,20.871z"></path><title>Link options.</title></g></g></g></g><g   id="j_304" ><path  stroke="#707070" d="M 2507 1699 L 2132 1999" id="v-3832" stroke-width="2" stroke-dasharray="30 30" fill="none" style="opacity: 1;"></path><path  fill="black" stroke="black" d="M 0 0 0 0" transform="matrix(-0.7808688416748546,0.6246950072646418,-0.6246950072646418,-0.7808688416748546,2506.5,1699)"></path><path  fill="#707070" stroke="#707070" d="M 20 0 L 0 10 L 20 20 z" id="v-3834" transform="matrix(0.7808686753084834,-0.624695215222571,0.624695215222571,0.7808686753084834,2125.252954844689,1991.1913171569533)" style="opacity: 1;"></path><path  d="M 2507 1699 L 2132 1999" id="v-3833" fill="none" style="cursor: auto; pointer-events: visiblepainted;"></path><g ><g id="v-3823"  label-idx="0" cursor="move" transform="matrix(1,0,0,1,2319.5,1849)" style="cursor: default; opacity: 1;"><rect joint-selector="rect" id="v-3827" fill="#ffffff" rx="3" ry="3" pointer-events="none" width="168.04327392578125" height="63.45554161071777" transform="matrix(1,0,0,1,-84,-31.8)"></rect><text joint-selector="text" id="v-3826" font-size="24px" xml:space="preserve" y="0.8em" fill="#707070" text-anchor="middle" pointer-events="none" font-family="Open Sans" font-weight="normal" transform="matrix(1,0,0,1,0,-24)"><tspan dy="0" >Publishes</tspan><tspan dy="1.2em" x="0" >lifecycle events</tspan></text></g><g id="v-3824"  label-idx="1" cursor="move" transform="matrix(1,0,0,1,2319.5,1891)" style="cursor: default; opacity: 1;"><rect joint-selector="rect" id="v-3829" fill="#ffffff" rx="3" ry="3" pointer-events="none" width="60.94802474975586" height="23.332547187805176" transform="matrix(1,0,0,1,-30.5,-11.7)"></rect><text joint-selector="text" id="v-3828" font-size="17px" xml:space="preserve" y="0.8em" fill="#707070" text-anchor="middle" pointer-events="none" font-family="Open Sans" font-weight="normal" transform="matrix(1,0,0,1,0,-6)"><tspan dy="0" >[erlang]</tspan></text></g><g id="v-3825"  label-idx="2" cursor="move" transform="matrix(1,0,0,1,2309.5,1900.25)" style="cursor: default; opacity: 1;"><rect joint-selector="rect" id="v-3831" fill="#ffffff" rx="3" ry="3"  width="0" height="0" transform="matrix(1,0,0,1,0,0)" display="none"></rect><text joint-selector="text" id="v-3830" fill="#000000" font-size="14" text-anchor="middle" pointer-events="none"></text></g></g><g  display="none" style="display: none;"></g><g  id="v-3836" display="none"><g  id="v-3821"><path  end="source" d="M 26 0 L 0 13 L 26 26 z"></path></g><g  id="v-3822"><path  end="target" d="M 26 0 L 0 13 L 26 26 z"></path></g></g><g  id="v-3835" display="none"><g  id="v-3820" transform="translate(2475.765247622279, 1723.9878019021771) "><g  event="remove"><circle r="11"></circle><path transform="scale(.8) translate(-16, -16)" d="M24.778,21.419 19.276,15.917 24.777,10.415 21.949,7.585 16.447,13.087 10.945,7.585 8.117,10.415 13.618,15.917 8.116,21.419 10.946,24.248 16.447,18.746 21.948,24.248z"></path><title>Remove link.</title></g><g  event="link:options"><circle r="11" transform="translate(25)"></circle><path fill="white" transform="scale(.55) translate(29, -16)" d="M31.229,17.736c0.064-0.571,0.104-1.148,0.104-1.736s-0.04-1.166-0.104-1.737l-4.377-1.557c-0.218-0.716-0.504-1.401-0.851-2.05l1.993-4.192c-0.725-0.91-1.549-1.734-2.458-2.459l-4.193,1.994c-0.647-0.347-1.334-0.632-2.049-0.849l-1.558-4.378C17.165,0.708,16.588,0.667,16,0.667s-1.166,0.041-1.737,0.105L12.707,5.15c-0.716,0.217-1.401,0.502-2.05,0.849L6.464,4.005C5.554,4.73,4.73,5.554,4.005,6.464l1.994,4.192c-0.347,0.648-0.632,1.334-0.849,2.05l-4.378,1.557C0.708,14.834,0.667,15.412,0.667,16s0.041,1.165,0.105,1.736l4.378,1.558c0.217,0.715,0.502,1.401,0.849,2.049l-1.994,4.193c0.725,0.909,1.549,1.733,2.459,2.458l4.192-1.993c0.648,0.347,1.334,0.633,2.05,0.851l1.557,4.377c0.571,0.064,1.148,0.104,1.737,0.104c0.588,0,1.165-0.04,1.736-0.104l1.558-4.377c0.715-0.218,1.399-0.504,2.049-0.851l4.193,1.993c0.909-0.725,1.733-1.549,2.458-2.458l-1.993-4.193c0.347-0.647,0.633-1.334,0.851-2.049L31.229,17.736zM16,20.871c-2.69,0-4.872-2.182-4.872-4.871c0-2.69,2.182-4.872,4.872-4.872c2.689,0,4.871,2.182,4.871,4.872C20.871,18.689,18.689,20.871,16,20.871z"></path><title>Link options.</title></g></g></g></g><g   id="j_305" ><path  stroke="#707070" d="M 2507 499 L 1382 1399" id="v-3852" stroke-width="2" stroke-dasharray="30 30" fill="none" style="opacity: 1;"></path><path  fill="black" stroke="black" d="M 0 0 0 0" transform="matrix(-0.7808688416748546,0.6246950072646418,-0.6246950072646418,-0.7808688416748546,2506.5,499)"></path><path  fill="#707070" stroke="#707070" d="M 20 0 L 0 10 L 20 20 z" id="v-3854" transform="matrix(0.7808686753084834,-0.624695215222571,0.624695215222571,0.7808686753084834,1375.2530769150017,1391.1913171569533)" style="opacity: 1;"></path><path  d="M 2507 499 L 1382 1399" id="v-3853" fill="none" style="cursor: auto; pointer-events: visiblepainted;"></path><g ><g id="v-3843"  label-idx="0" cursor="move" transform="matrix(1,0,0,1,1944.5,949)" style="cursor: default; opacity: 1;"><rect joint-selector="rect" id="v-3847" fill="#ffffff" rx="3" ry="3" pointer-events="none" width="149.63250732421875" height="34.65554237365723" transform="matrix(1,0,0,1,-74.8,-17.4)"></rect><text joint-selector="text" id="v-3846" font-size="24px" xml:space="preserve" y="0.8em" fill="#707070" text-anchor="middle" pointer-events="none" font-family="Open Sans" font-weight="normal" transform="matrix(1,0,0,1,0,-9.6)"><tspan dy="0" >Executes RPC</tspan></text></g><g id="v-3844"  label-idx="1" cursor="move" transform="matrix(1,0,0,1,1944.5,976)" style="cursor: default; opacity: 1;"><rect joint-selector="rect" id="v-3849" fill="#ffffff" rx="3" ry="3" pointer-events="none" width="92.29444122314453" height="23.315964698791504" transform="matrix(1,0,0,1,-46.1,-11.7)"></rect><text joint-selector="text" id="v-3848" font-size="17px" xml:space="preserve" y="0.8em" fill="#707070" text-anchor="middle" pointer-events="none" font-family="Open Sans" font-weight="normal" transform="matrix(1,0,0,1,0,-6)"><tspan dy="0" >[http, thrift]</tspan></text></g><g id="v-3845"  label-idx="2" cursor="move" transform="matrix(1,0,0,1,1934.5,985.25)" style="cursor: default; opacity: 1;"><rect joint-selector="rect" id="v-3851" fill="#ffffff" rx="3" ry="3"  width="0" height="0" transform="matrix(1,0,0,1,0,0)" display="none"></rect><text joint-selector="text" id="v-3850" fill="#000000" font-size="14" text-anchor="middle" pointer-events="none"></text></g></g><g  display="none" style="display: none;"></g><g  id="v-3856" display="none"><g  id="v-3841"><path  end="source" d="M 26 0 L 0 13 L 26 26 z"></path></g><g  id="v-3842"><path  end="target" d="M 26 0 L 0 13 L 26 26 z"></path></g></g><g  id="v-3855" display="none"><g  id="v-3840" transform="translate(2475.765247622279, 523.987801902177) "><g  event="remove"><circle r="11"></circle><path transform="scale(.8) translate(-16, -16)" d="M24.778,21.419 19.276,15.917 24.777,10.415 21.949,7.585 16.447,13.087 10.945,7.585 8.117,10.415 13.618,15.917 8.116,21.419 10.946,24.248 16.447,18.746 21.948,24.248z"></path><title>Remove link.</title></g><g  event="link:options"><circle r="11" transform="translate(25)"></circle><path fill="white" transform="scale(.55) translate(29, -16)" d="M31.229,17.736c0.064-0.571,0.104-1.148,0.104-1.736s-0.04-1.166-0.104-1.737l-4.377-1.557c-0.218-0.716-0.504-1.401-0.851-2.05l1.993-4.192c-0.725-0.91-1.549-1.734-2.458-2.459l-4.193,1.994c-0.647-0.347-1.334-0.632-2.049-0.849l-1.558-4.378C17.165,0.708,16.588,0.667,16,0.667s-1.166,0.041-1.737,0.105L12.707,5.15c-0.716,0.217-1.401,0.502-2.05,0.849L6.464,4.005C5.554,4.73,4.73,5.554,4.005,6.464l1.994,4.192c-0.347,0.648-0.632,1.334-0.849,2.05l-4.378,1.557C0.708,14.834,0.667,15.412,0.667,16s0.041,1.165,0.105,1.736l4.378,1.558c0.217,0.715,0.502,1.401,0.849,2.049l-1.994,4.193c0.725,0.909,1.549,1.733,2.459,2.458l4.192-1.993c0.648,0.347,1.334,0.633,2.05,0.851l1.557,4.377c0.571,0.064,1.148,0.104,1.737,0.104c0.588,0,1.165-0.04,1.736-0.104l1.558-4.377c0.715-0.218,1.399-0.504,2.049-0.851l4.193,1.993c0.909-0.725,1.733-1.549,2.458-2.458l-1.993-4.193c0.347-0.647,0.633-1.334,0.851-2.049L31.229,17.736zM16,20.871c-2.69,0-4.872-2.182-4.872-4.871c0-2.69,2.182-4.872,4.872-4.872c2.689,0,4.871,2.182,4.871,4.872C20.871,18.689,18.689,20.871,16,20.871z"></path><title>Link options.</title></g></g></g></g></g><g ></g><g ></g><g ></g></g></svg>