<svg xmlns="http://www.w3.org/2000/svg" xmlns:xlink="http://www.w3.org/1999/xlink" version="1.1" viewBox="0 0 1640 1991" style="background: #ffffff"><defs><style>@import url(https://fonts.googleapis.com/css?family=Open+Sans:400,700);</style></defs><defs joint-selector="defs"></defs><g joint-selector="layers"  transform="matrix(1,0,0,1,0,0)"><g ></g><g ><g   id="j_307"  transform="translate(20,1953.5)"><g id="v-3859"><text  id="v-3860" font-size="22px" xml:space="preserve" y="0.8em" font-weight="normal" text-anchor="start" fill="#aaaaaa" pointer-events="none" display="block" font-family="Open Sans"><tspan dy="0" >Thursday, 29 February 2024 at 10:02 Moscow Standard Time</tspan></text></g></g><g   id="j_306"  transform="translate(20,1908.5)"><g id="v-3857"><text  id="v-3858" font-size="36px" xml:space="preserve" y="0.8em" font-weight="normal" text-anchor="start" fill="#000000" pointer-events="none" display="block" font-family="Open Sans"><tspan dy="0" >[Component] Machinegun cluster - Cluster management</tspan></text></g></g><g   id="j_308"  transform="translate(595,199)" style=""><g  id="v-3867" style="opacity: 1;"><rect  id="v-3868" rx="20" ry="20" stroke="#3c7fc0" stroke-width="2" pointer-events="visiblePainted" fill="#438dd5" width="450" height="300" style="fill: rgb(67, 141, 213); stroke: rgb(60, 127, 192);"></rect><text  id="v-3869" font-size="34" xml:space="preserve" y="0.8em" font-weight="bold" text-anchor="middle" pointer-events="visible" font-family="Open Sans" fill="#ffffff" transform="matrix(1,0,0,1,225,46.9)" style="fill: rgb(255, 255, 255);"><tspan dy="0" >Namespaced events</tspan><tspan dy="1.2em" x="0" >machines</tspan></text><text  id="v-3870" font-size="17" xml:space="preserve" y="0.8em" text-anchor="middle" font-family="Open Sans" fill="#ffffff" transform="matrix(1,0,0,1,225,131.9)" style="fill: rgb(255, 255, 255);"><tspan dy="0" >[Container]</tspan></text><text  id="v-3871" font-size="24" xml:space="preserve" y="0.8em" text-anchor="middle" font-family="Open Sans" fill="#ffffff" transform="matrix(1,0,0,1,225,163.1)" style="fill: rgb(255, 255, 255);"><tspan dy="0" >Each instance of child component is</tspan><tspan dy="1.2em" x="0" >dedicated to parent namespace</tspan><tspan dy="1.2em" x="0" >only</tspan></text><g  id="v-3872" color="#ffffff" transform="matrix(1,0,0,1,210,263.1)" display="none" style="fill: rgb(255, 255, 255);"><g  transform="translate(5 0)"><svg xmlns="http://www.w3.org/2000/svg" width="20" height="20" fill="currentColor" viewBox="0 0 16 16"><path fill-rule="evenodd" d="M6.5 12a5.5 5.5 0 1 0 0-11 5.5 5.5 0 0 0 0 11zM13 6.5a6.5 6.5 0 1 1-13 0 6.5 6.5 0 0 1 13 0z"></path><path d="M10.344 11.742c.03.04.062.078.098.115l3.85 3.85a1 1 0 0 0 1.415-1.414l-3.85-3.85a1.007 1.007 0 0 0-.115-.1 6.538 6.538 0 0 1-1.398 1.4z"></path><path fill-rule="evenodd" d="M6.5 3a.5.5 0 0 1 .5.5V6h2.5a.5.5 0 0 1 0 1H7v2.5a.5.5 0 0 1-1 0V7H3.5a.5.5 0 0 1 0-1H6V3.5a.5.5 0 0 1 .5-.5z"></path></svg></g><g ></g><g ></g><g ></g></g><image  id="v-3873"></image></g></g><g   id="j_310"  transform="translate(200,779)" style=""><g id="v-3884"><rect  id="v-3885" width="1240" height="1011" rx="0" ry="0" fill="#ffffff" stroke="#3c7fc0" stroke-width="1" stroke-dasharray="20,20" pointer-events="none"></rect><text  id="v-3886" font-size="24px" xml:space="preserve" y="972" font-weight="normal" fill="#3c7fc0" text-anchor="start" pointer-events="visible" font-family="Open Sans" transform="matrix(1,0,0,1,15,0)"><tspan dy="0" >Cluster management</tspan></text><text  id="v-3887" font-size="17px" xml:space="preserve" y="996" font-weight="normal" fill="#3c7fc0" text-anchor="start" pointer-events="visible" font-family="Open Sans" transform="matrix(1,0,0,1,15,0)"><tspan dy="0" >[Container]</tspan></text><image  id="v-3888" pointer-events="visible"></image></g></g><g   id="j_309"  transform="translate(557,1399)" style=""><g  id="v-3877" style="opacity: 1;"><rect  id="v-3878" rx="20" ry="20" stroke="#78a8d8" stroke-width="2" pointer-events="visiblePainted" fill="#85bbf0" width="450" height="300" style="fill: rgb(133, 187, 240); stroke: rgb(120, 168, 216);"></rect><text  id="v-3879" font-size="34" xml:space="preserve" y="0.8em" font-weight="bold" text-anchor="middle" pointer-events="visible" font-family="Open Sans" fill="#000000" transform="matrix(1,0,0,1,225,91.9)" style="fill: rgb(0, 0, 0);"><tspan dy="0" >Discovery/distribution</tspan><tspan dy="1.2em" x="0" >service</tspan></text><text  id="v-3880" font-size="17" xml:space="preserve" y="0.8em" text-anchor="middle" font-family="Open Sans" fill="#000000" transform="matrix(1,0,0,1,225,176.9)" style="fill: rgb(0, 0, 0);"><tspan dy="0" >[Component]</tspan></text><text  id="v-3881" font-size="24" xml:space="preserve" display="none" y="0.8em" text-anchor="middle" font-family="Open Sans" fill="#000000" transform="matrix(1,0,0,1,225,208.1)" style="fill: rgb(0, 0, 0);"><tspan dy="0" style="fill-opacity: 0; stroke-opacity: 0;" >-</tspan></text><g  id="v-3882" color="#000000" transform="matrix(1,0,0,1,222.5,218.1)" display="none" style="fill: rgb(0, 0, 0);"><g ></g><g ></g><g ></g><g ></g></g><image  id="v-3883"></image></g></g><g   id="j_311"  transform="translate(970,799)" style=""><g  id="v-3895" style="opacity: 1;"><rect  id="v-3896" rx="20" ry="20" stroke="#78a8d8" stroke-width="2" pointer-events="visiblePainted" fill="#85bbf0" width="450" height="300" style="fill: rgb(133, 187, 240); stroke: rgb(120, 168, 216);"></rect><text  id="v-3897" font-size="34" xml:space="preserve" y="0.8em" font-weight="bold" text-anchor="middle" pointer-events="visible" font-family="Open Sans" fill="#000000" transform="matrix(1,0,0,1,225,68.1)" style="fill: rgb(0, 0, 0);"><tspan dy="0" >Squads in cluster</tspan></text><text  id="v-3898" font-size="17" xml:space="preserve" y="0.8em" text-anchor="middle" font-family="Open Sans" fill="#000000" transform="matrix(1,0,0,1,225,110.6)" style="fill: rgb(0, 0, 0);"><tspan dy="0" >[Component]</tspan></text><text  id="v-3899" font-size="24" xml:space="preserve" y="0.8em" text-anchor="middle" font-family="Open Sans" fill="#000000" transform="matrix(1,0,0,1,225,141.9)" style="fill: rgb(0, 0, 0);"><tspan dy="0" >Cluster allows group of processes</tspan><tspan dy="1.2em" x="0" >know about each other and elect</tspan><tspan dy="1.2em" x="0" >leader</tspan></text><g  id="v-3900" color="#000000" transform="matrix(1,0,0,1,222.5,241.9)" display="none" style="fill: rgb(0, 0, 0);"><g ></g><g ></g><g ></g><g ></g></g><image  id="v-3901"></image></g></g><g   id="j_312"  transform="translate(220,799)" style=""><g  id="v-3908" style="opacity: 1;"><rect  id="v-3909" rx="20" ry="20" stroke="#78a8d8" stroke-width="2" pointer-events="visiblePainted" fill="#85bbf0" width="450" height="300" style="fill: rgb(133, 187, 240); stroke: rgb(120, 168, 216);"></rect><text  id="v-3910" font-size="34" xml:space="preserve" y="0.8em" font-weight="bold" text-anchor="middle" pointer-events="visible" font-family="Open Sans" fill="#000000" transform="matrix(1,0,0,1,225,83.1)" style="fill: rgb(0, 0, 0);"><tspan dy="0" >Singleton in cluster</tspan></text><text  id="v-3911" font-size="17" xml:space="preserve" y="0.8em" text-anchor="middle" font-family="Open Sans" fill="#000000" transform="matrix(1,0,0,1,225,125.6)" style="fill: rgb(0, 0, 0);"><tspan dy="0" >[Component]</tspan></text><text  id="v-3912" font-size="24" xml:space="preserve" y="0.8em" text-anchor="middle" font-family="Open Sans" fill="#000000" transform="matrix(1,0,0,1,225,156.9)" style="fill: rgb(0, 0, 0);"><tspan dy="0" >Cluster's guarnatee for entity as</tspan><tspan dy="1.2em" x="0" >singleton</tspan></text><g  id="v-3913" color="#000000" transform="matrix(1,0,0,1,222.5,226.9)" display="none" style="fill: rgb(0, 0, 0);"><g ></g><g ></g><g ></g><g ></g></g><image  id="v-3914"></image></g></g><g   id="j_313" ><path  stroke="#707070" d="M 726 499 L 539 799" id="v-3927" stroke-width="2" stroke-dasharray="30 30" fill="none" style="opacity: 1;"></path><path  fill="black" stroke="black" d="M 0 0 0 0" transform="matrix(-0.5299989865422612,0.8479982749181605,-0.8479982749181605,-0.5299989865422612,726.25,499)"></path><path  fill="#707070" stroke="#707070" d="M 20 0 L 0 10 L 20 20 z" id="v-3929" transform="matrix(0.5299987607066415,-0.8479984160653982,0.8479984160653982,0.5299987607066415,530.2700160252483,793.7000160848376)" style="opacity: 1;"></path><path  d="M 726 499 L 539 799" id="v-3928" fill="none" style="cursor: auto; pointer-events: visiblepainted;"></path><g ><g id="v-3921"  label-idx="0" cursor="move" transform="matrix(1,0,0,1,632.5,649)" style="cursor: default; opacity: 1;"><rect joint-selector="rect" id="v-3924" fill="#ffffff" rx="3" ry="3" pointer-events="none" width="163.04039001464844" height="119.34112930297852" transform="matrix(1,0,0,1,-81.5,-59.7)"></rect><text joint-selector="text" id="v-3923" font-size="24px" xml:space="preserve" y="0.8em" fill="#707070" text-anchor="middle" pointer-events="none" font-family="Open Sans" font-weight="normal" transform="matrix(1,0,0,1,0,-53.7)"><tspan dy="0" >Relies for</tspan><tspan dy="1.2em" x="0" >instancing and</tspan><tspan dy="1.2em" x="0" >addressing</tspan><tspan dy="1.2em" x="0" >workers</tspan></text></g><g id="v-3922"  label-idx="1" cursor="move" transform="matrix(1,0,0,1,622.5,721)" style="cursor: default; opacity: 1;"><rect joint-selector="rect" id="v-3926" fill="#ffffff" rx="3" ry="3"  width="0" height="0" transform="matrix(1,0,0,1,0,0)" display="none"></rect><text joint-selector="text" id="v-3925" fill="#000000" font-size="14" text-anchor="middle" pointer-events="none"></text></g></g><g  display="none" style="display: none;"></g><g  id="v-3931" display="none"><g  id="v-3919"><path  end="source" d="M 26 0 L 0 13 L 26 26 z"></path></g><g  id="v-3920"><path  end="target" d="M 26 0 L 0 13 L 26 26 z"></path></g></g><g  id="v-3930" display="none"><g  id="v-3918" transform="translate(704.8407411961142, 532.9453349794959) "><g  event="remove"><circle r="11"></circle><path transform="scale(.8) translate(-16, -16)" d="M24.778,21.419 19.276,15.917 24.777,10.415 21.949,7.585 16.447,13.087 10.945,7.585 8.117,10.415 13.618,15.917 8.116,21.419 10.946,24.248 16.447,18.746 21.948,24.248z"></path><title>Remove link.</title></g><g  event="link:options"><circle r="11" transform="translate(25)"></circle><path fill="white" transform="scale(.55) translate(29, -16)" d="M31.229,17.736c0.064-0.571,0.104-1.148,0.104-1.736s-0.04-1.166-0.104-1.737l-4.377-1.557c-0.218-0.716-0.504-1.401-0.851-2.05l1.993-4.192c-0.725-0.91-1.549-1.734-2.458-2.459l-4.193,1.994c-0.647-0.347-1.334-0.632-2.049-0.849l-1.558-4.378C17.165,0.708,16.588,0.667,16,0.667s-1.166,0.041-1.737,0.105L12.707,5.15c-0.716,0.217-1.401,0.502-2.05,0.849L6.464,4.005C5.554,4.73,4.73,5.554,4.005,6.464l1.994,4.192c-0.347,0.648-0.632,1.334-0.849,2.05l-4.378,1.557C0.708,14.834,0.667,15.412,0.667,16s0.041,1.165,0.105,1.736l4.378,1.558c0.217,0.715,0.502,1.401,0.849,2.049l-1.994,4.193c0.725,0.909,1.549,1.733,2.459,2.458l4.192-1.993c0.648,0.347,1.334,0.633,2.05,0.851l1.557,4.377c0.571,0.064,1.148,0.104,1.737,0.104c0.588,0,1.165-0.04,1.736-0.104l1.558-4.377c0.715-0.218,1.399-0.504,2.049-0.851l4.193,1.993c0.909-0.725,1.733-1.549,2.458-2.458l-1.993-4.193c0.347-0.647,0.633-1.334,0.851-2.049L31.229,17.736zM16,20.871c-2.69,0-4.872-2.182-4.872-4.871c0-2.69,2.182-4.872,4.872-4.872c2.689,0,4.871,2.182,4.871,4.872C20.871,18.689,18.689,20.871,16,20.871z"></path><title>Link options.</title></g></g></g></g><g   id="j_314" ><path  stroke="#707070" d="M 1007 1507 L 1297 1454 C 1303.6666666666665 1452.6666666666665 1307 1455.3333333333333 1307 1462 L 1307 1539 C 1307 1545.6666666666665 1307 1552.333333333333 1307 1559 L 1307 1628 C 1307 1634.6666666666665 1303.6666666666665 1637.3333333333333 1297 1636 L 1007 1587" id="v-3947" stroke-width="2" stroke-dasharray="30 30" fill="none" style="opacity: 1;"></path><path  fill="black" stroke="black" d="M 0 0 0 0" transform="matrix(0.9833556070226015,-0.18169135955573387,0.18169135955573387,0.9833556070226015,1007,1507.4300537109375)"></path><path  fill="#707070" stroke="#707070" d="M 20 0 L 0 10 L 20 20 z" id="v-3949" transform="matrix(0.9859317663959628,0.16714829347419813,-0.16714829347419813,0.9859317663959628,1008.6714792356261,1577.2807228387983)" style="opacity: 1;"></path><path  d="M 1007 1507 L 1297 1454 C 1303.6666666666665 1452.6666666666665 1307 1455.3333333333333 1307 1462 L 1307 1539 C 1307 1545.6666666666665 1307 1552.333333333333 1307 1559 L 1307 1628 C 1307 1634.6666666666665 1303.6666666666665 1637.3333333333333 1297 1636 L 1007 1587" id="v-3948" fill="none" style="cursor: auto; pointer-events: visiblepainted;"></path><g ><g id="v-3938"  label-idx="0" cursor="move" transform="matrix(1,0,0,1,1307,1544.6640625)" style="cursor: default; opacity: 1;"><rect joint-selector="rect" id="v-3942" fill="#ffffff" rx="3" ry="3" pointer-events="none" width="107.51280212402344" height="32.941123962402344" transform="matrix(1,0,0,1,-53.8,-16.5)"></rect><text joint-selector="text" id="v-3941" font-size="24px" xml:space="preserve" y="0.8em" fill="#707070" text-anchor="middle" pointer-events="none" font-family="Open Sans" font-weight="normal" transform="matrix(1,0,0,1,0,-10.5)"><tspan dy="0" >Discovers</tspan></text></g><g id="v-3939"  label-idx="1" cursor="move" transform="matrix(1,0,0,1,1307,1571.6640625)" style="cursor: default; opacity: 1;"><rect joint-selector="rect" id="v-3944" fill="#ffffff" rx="3" ry="3" pointer-events="none" width="61.007686614990234" height="23.252558708190918" transform="matrix(1,0,0,1,-30.5,-11.6)"></rect><text joint-selector="text" id="v-3943" font-size="17px" xml:space="preserve" y="0.8em" fill="#707070" text-anchor="middle" pointer-events="none" font-family="Open Sans" font-weight="normal" transform="matrix(1,0,0,1,0,-7.8)"><tspan dy="0" >[erlang]</tspan></text></g><g id="v-3940"  label-idx="2" cursor="move" transform="matrix(1,0,0,1,1297,1580.9140625)" style="cursor: default; opacity: 1;"><rect joint-selector="rect" id="v-3946" fill="#ffffff" rx="3" ry="3"  width="0" height="0" transform="matrix(1,0,0,1,0,0)" display="none"></rect><text joint-selector="text" id="v-3945" fill="#000000" font-size="14" text-anchor="middle" pointer-events="none"></text></g></g><g  display="none" style="display: none;"><g  transform="translate(1307, 1452)" id="v-3997"><circle  idx="0" r="10"></circle><path  idx="0" d="M16,5.333c-7.732,0-14,4.701-14,10.5c0,1.982,0.741,3.833,2.016,5.414L2,25.667l5.613-1.441c2.339,1.317,5.237,2.107,8.387,2.107c7.732,0,14-4.701,14-10.5C30,10.034,23.732,5.333,16,5.333z" transform="translate(5, -33)"></path><path  idx="0" transform="scale(.8) translate(9.5, -37)" d="M24.778,21.419 19.276,15.917 24.777,10.415 21.949,7.585 16.447,13.087 10.945,7.585 8.117,10.415 13.618,15.917 8.116,21.419 10.946,24.248 16.447,18.746 21.948,24.248z"><title>Remove vertex.</title></path></g><g  transform="translate(1307, 1549)" id="v-3998"><circle  idx="1" r="10"></circle><path  idx="1" d="M16,5.333c-7.732,0-14,4.701-14,10.5c0,1.982,0.741,3.833,2.016,5.414L2,25.667l5.613-1.441c2.339,1.317,5.237,2.107,8.387,2.107c7.732,0,14-4.701,14-10.5C30,10.034,23.732,5.333,16,5.333z" transform="translate(5, -33)"></path><path  idx="1" transform="scale(.8) translate(9.5, -37)" d="M24.778,21.419 19.276,15.917 24.777,10.415 21.949,7.585 16.447,13.087 10.945,7.585 8.117,10.415 13.618,15.917 8.116,21.419 10.946,24.248 16.447,18.746 21.948,24.248z"><title>Remove vertex.</title></path></g><g  transform="translate(1307, 1638)" id="v-3999"><circle  idx="2" r="10"></circle><path  idx="2" d="M16,5.333c-7.732,0-14,4.701-14,10.5c0,1.982,0.741,3.833,2.016,5.414L2,25.667l5.613-1.441c2.339,1.317,5.237,2.107,8.387,2.107c7.732,0,14-4.701,14-10.5C30,10.034,23.732,5.333,16,5.333z" transform="translate(5, -33)"></path><path  idx="2" transform="scale(.8) translate(9.5, -37)" d="M24.778,21.419 19.276,15.917 24.777,10.415 21.949,7.585 16.447,13.087 10.945,7.585 8.117,10.415 13.618,15.917 8.116,21.419 10.946,24.248 16.447,18.746 21.948,24.248z"><title>Remove vertex.</title></path></g></g><g  id="v-3951" display="none"><g  id="v-3936"><path  end="source" d="M 26 0 L 0 13 L 26 26 z"></path></g><g  id="v-3937"><path  end="target" d="M 26 0 L 0 13 L 26 26 z"></path></g></g><g  id="v-3950" display="none"><g  id="v-3932" transform="translate(1046.3482672855441, 1499.808764944366) "><g  event="remove"><circle r="11"></circle><path transform="scale(.8) translate(-16, -16)" d="M24.778,21.419 19.276,15.917 24.777,10.415 21.949,7.585 16.447,13.087 10.945,7.585 8.117,10.415 13.618,15.917 8.116,21.419 10.946,24.248 16.447,18.746 21.948,24.248z"></path><title>Remove link.</title></g><g  event="link:options"><circle r="11" transform="translate(25)"></circle><path fill="white" transform="scale(.55) translate(29, -16)" d="M31.229,17.736c0.064-0.571,0.104-1.148,0.104-1.736s-0.04-1.166-0.104-1.737l-4.377-1.557c-0.218-0.716-0.504-1.401-0.851-2.05l1.993-4.192c-0.725-0.91-1.549-1.734-2.458-2.459l-4.193,1.994c-0.647-0.347-1.334-0.632-2.049-0.849l-1.558-4.378C17.165,0.708,16.588,0.667,16,0.667s-1.166,0.041-1.737,0.105L12.707,5.15c-0.716,0.217-1.401,0.502-2.05,0.849L6.464,4.005C5.554,4.73,4.73,5.554,4.005,6.464l1.994,4.192c-0.347,0.648-0.632,1.334-0.849,2.05l-4.378,1.557C0.708,14.834,0.667,15.412,0.667,16s0.041,1.165,0.105,1.736l4.378,1.558c0.217,0.715,0.502,1.401,0.849,2.049l-1.994,4.193c0.725,0.909,1.549,1.733,2.459,2.458l4.192-1.993c0.648,0.347,1.334,0.633,2.05,0.851l1.557,4.377c0.571,0.064,1.148,0.104,1.737,0.104c0.588,0,1.165-0.04,1.736-0.104l1.558-4.377c0.715-0.218,1.399-0.504,2.049-0.851l4.193,1.993c0.909-0.725,1.733-1.549,2.458-2.458l-1.993-4.193c0.347-0.647,0.633-1.334,0.851-2.049L31.229,17.736zM16,20.871c-2.69,0-4.872-2.182-4.872-4.871c0-2.69,2.182-4.872,4.872-4.872c2.689,0,4.871,2.182,4.871,4.872C20.871,18.689,18.689,20.871,16,20.871z"></path><title>Link options.</title></g></g></g></g><g   id="j_315" ><path  stroke="#707070" d="M 1092 1099 L 885 1399" id="v-3961" stroke-width="2" stroke-dasharray="30 30" fill="none" style="opacity: 1;"></path><path  fill="black" stroke="black" d="M 0 0 0 0" transform="matrix(-0.5669948422892724,0.8237213417275062,-0.8237213417275062,-0.5669948422892724,1091.75,1099)"></path><path  fill="#707070" stroke="#707070" d="M 20 0 L 0 10 L 20 20 z" id="v-3963" transform="matrix(0.566994732604136,-0.8237214172274291,0.8237214172274291,0.566994732604136,877.0127603766844,1393.3300842290455)" style="opacity: 1;"></path><path  d="M 1092 1099 L 885 1399" id="v-3962" fill="none" style="cursor: auto; pointer-events: visiblepainted;"></path><g ><g id="v-3955"  label-idx="0" cursor="move" transform="matrix(1,0,0,1,988.5,1249)" style="cursor: default; opacity: 1;"><rect joint-selector="rect" id="v-3958" fill="#ffffff" rx="3" ry="3" pointer-events="none" width="130.06900024414062" height="32.941123962402344" transform="matrix(1,0,0,1,-65,-16.5)"></rect><text joint-selector="text" id="v-3957" font-size="24px" xml:space="preserve" y="0.8em" fill="#707070" text-anchor="middle" pointer-events="none" font-family="Open Sans" font-weight="normal" transform="matrix(1,0,0,1,0,-10.5)"><tspan dy="0" >Relies upon</tspan></text></g><g id="v-3956"  label-idx="1" cursor="move" transform="matrix(1,0,0,1,978.5,1276)" style="cursor: default; opacity: 1;"><rect joint-selector="rect" id="v-3960" fill="#ffffff" rx="3" ry="3"  width="0" height="0" transform="matrix(1,0,0,1,0,0)" display="none"></rect><text joint-selector="text" id="v-3959" fill="#000000" font-size="14" text-anchor="middle" pointer-events="none"></text></g></g><g  display="none" style="display: none;"></g><g  id="v-3965" display="none"><g  id="v-3953"><path  end="source" d="M 26 0 L 0 13 L 26 26 z"></path></g><g  id="v-3954"><path  end="target" d="M 26 0 L 0 13 L 26 26 z"></path></g></g><g  id="v-3964" display="none"><g  id="v-3952" transform="translate(1069.282988810475, 1131.9232046225) "><g  event="remove"><circle r="11"></circle><path transform="scale(.8) translate(-16, -16)" d="M24.778,21.419 19.276,15.917 24.777,10.415 21.949,7.585 16.447,13.087 10.945,7.585 8.117,10.415 13.618,15.917 8.116,21.419 10.946,24.248 16.447,18.746 21.948,24.248z"></path><title>Remove link.</title></g><g  event="link:options"><circle r="11" transform="translate(25)"></circle><path fill="white" transform="scale(.55) translate(29, -16)" d="M31.229,17.736c0.064-0.571,0.104-1.148,0.104-1.736s-0.04-1.166-0.104-1.737l-4.377-1.557c-0.218-0.716-0.504-1.401-0.851-2.05l1.993-4.192c-0.725-0.91-1.549-1.734-2.458-2.459l-4.193,1.994c-0.647-0.347-1.334-0.632-2.049-0.849l-1.558-4.378C17.165,0.708,16.588,0.667,16,0.667s-1.166,0.041-1.737,0.105L12.707,5.15c-0.716,0.217-1.401,0.502-2.05,0.849L6.464,4.005C5.554,4.73,4.73,5.554,4.005,6.464l1.994,4.192c-0.347,0.648-0.632,1.334-0.849,2.05l-4.378,1.557C0.708,14.834,0.667,15.412,0.667,16s0.041,1.165,0.105,1.736l4.378,1.558c0.217,0.715,0.502,1.401,0.849,2.049l-1.994,4.193c0.725,0.909,1.549,1.733,2.459,2.458l4.192-1.993c0.648,0.347,1.334,0.633,2.05,0.851l1.557,4.377c0.571,0.064,1.148,0.104,1.737,0.104c0.588,0,1.165-0.04,1.736-0.104l1.558-4.377c0.715-0.218,1.399-0.504,2.049-0.851l4.193,1.993c0.909-0.725,1.733-1.549,2.458-2.458l-1.993-4.193c0.347-0.647,0.633-1.334,0.851-2.049L31.229,17.736zM16,20.871c-2.69,0-4.872-2.182-4.872-4.871c0-2.69,2.182-4.872,4.872-4.872c2.689,0,4.871,2.182,4.871,4.872C20.871,18.689,18.689,20.871,16,20.871z"></path><title>Link options.</title></g></g></g></g><g   id="j_316" ><path  stroke="#707070" d="M 529 1099 L 698 1399" id="v-3975" stroke-width="2" stroke-dasharray="30 30" fill="none" style="opacity: 1;"></path><path  fill="black" stroke="black" d="M 0 0 0 0" transform="matrix(0.4897092340809925,0.8718858102158836,-0.8718858102158836,0.4897092340809925,529.25,1099)"></path><path  fill="#707070" stroke="#707070" d="M 20 0 L 0 10 L 20 20 z" id="v-3977" transform="matrix(-0.4897092340809924,-0.8718858102158836,0.8718858102158836,-0.4897092340809924,689.0311395120885,1403.8970783726563)" style="opacity: 1;"></path><path  d="M 529 1099 L 698 1399" id="v-3976" fill="none" style="cursor: auto; pointer-events: visiblepainted;"></path><g ><g id="v-3969"  label-idx="0" cursor="move" transform="matrix(1,0,0,1,613.5,1249)" style="cursor: default; opacity: 1;"><rect joint-selector="rect" id="v-3972" fill="#ffffff" rx="3" ry="3" pointer-events="none" width="130.06900024414062" height="32.941123962402344" transform="matrix(1,0,0,1,-65,-16.5)"></rect><text joint-selector="text" id="v-3971" font-size="24px" xml:space="preserve" y="0.8em" fill="#707070" text-anchor="middle" pointer-events="none" font-family="Open Sans" font-weight="normal" transform="matrix(1,0,0,1,0,-10.5)"><tspan dy="0" >Relies upon</tspan></text></g><g id="v-3970"  label-idx="1" cursor="move" transform="matrix(1,0,0,1,603.5,1276)" style="cursor: default; opacity: 1;"><rect joint-selector="rect" id="v-3974" fill="#ffffff" rx="3" ry="3"  width="0" height="0" transform="matrix(1,0,0,1,0,0)" display="none"></rect><text joint-selector="text" id="v-3973" fill="#000000" font-size="14" text-anchor="middle" pointer-events="none"></text></g></g><g  display="none" style="display: none;"></g><g  id="v-3979" display="none"><g  id="v-3967"><path  end="source" d="M 26 0 L 0 13 L 26 26 z"></path></g><g  id="v-3968"><path  end="target" d="M 26 0 L 0 13 L 26 26 z"></path></g></g><g  id="v-3978" display="none"><g  id="v-3966" transform="translate(548.6325073670772, 1133.8506047936282) "><g  event="remove"><circle r="11"></circle><path transform="scale(.8) translate(-16, -16)" d="M24.778,21.419 19.276,15.917 24.777,10.415 21.949,7.585 16.447,13.087 10.945,7.585 8.117,10.415 13.618,15.917 8.116,21.419 10.946,24.248 16.447,18.746 21.948,24.248z"></path><title>Remove link.</title></g><g  event="link:options"><circle r="11" transform="translate(25)"></circle><path fill="white" transform="scale(.55) translate(29, -16)" d="M31.229,17.736c0.064-0.571,0.104-1.148,0.104-1.736s-0.04-1.166-0.104-1.737l-4.377-1.557c-0.218-0.716-0.504-1.401-0.851-2.05l1.993-4.192c-0.725-0.91-1.549-1.734-2.458-2.459l-4.193,1.994c-0.647-0.347-1.334-0.632-2.049-0.849l-1.558-4.378C17.165,0.708,16.588,0.667,16,0.667s-1.166,0.041-1.737,0.105L12.707,5.15c-0.716,0.217-1.401,0.502-2.05,0.849L6.464,4.005C5.554,4.73,4.73,5.554,4.005,6.464l1.994,4.192c-0.347,0.648-0.632,1.334-0.849,2.05l-4.378,1.557C0.708,14.834,0.667,15.412,0.667,16s0.041,1.165,0.105,1.736l4.378,1.558c0.217,0.715,0.502,1.401,0.849,2.049l-1.994,4.193c0.725,0.909,1.549,1.733,2.459,2.458l4.192-1.993c0.648,0.347,1.334,0.633,2.05,0.851l1.557,4.377c0.571,0.064,1.148,0.104,1.737,0.104c0.588,0,1.165-0.04,1.736-0.104l1.558-4.377c0.715-0.218,1.399-0.504,2.049-0.851l4.193,1.993c0.909-0.725,1.733-1.549,2.458-2.458l-1.993-4.193c0.347-0.647,0.633-1.334,0.851-2.049L31.229,17.736zM16,20.871c-2.69,0-4.872-2.182-4.872-4.871c0-2.69,2.182-4.872,4.872-4.872c2.689,0,4.871,2.182,4.871,4.872C20.871,18.689,18.689,20.871,16,20.871z"></path><title>Link options.</title></g></g></g></g><g   id="j_317" ><path  stroke="#707070" d="M 914 499 L 1101 799" id="v-3992" stroke-width="2" stroke-dasharray="30 30" fill="none" style="opacity: 1;"></path><path  fill="black" stroke="black" d="M 0 0 0 0" transform="matrix(0.52999893008336,0.8479983102049754,-0.8479983102049754,0.52999893008336,913.75,499)"></path><path  fill="#707070" stroke="#707070" d="M 20 0 L 0 10 L 20 20 z" id="v-3994" transform="matrix(-0.5299989865422614,-0.8479982749181603,0.8479982749181603,-0.5299989865422614,1092.769958288116,804.2999921458542)" style="opacity: 1;"></path><path  d="M 914 499 L 1101 799" id="v-3993" fill="none" style="cursor: auto; pointer-events: visiblepainted;"></path><g ><g id="v-3986"  label-idx="0" cursor="move" transform="matrix(1,0,0,1,1007.5,649)" style="cursor: default; opacity: 1;"><rect joint-selector="rect" id="v-3989" fill="#ffffff" rx="3" ry="3" pointer-events="none" width="199.46334838867188" height="61.74112319946289" transform="matrix(1,0,0,1,-99.7,-30.9)"></rect><text joint-selector="text" id="v-3988" font-size="24px" xml:space="preserve" y="0.8em" fill="#707070" text-anchor="middle" pointer-events="none" font-family="Open Sans" font-weight="normal" transform="matrix(1,0,0,1,0,-24.9)"><tspan dy="0" >Each scan occurrs</tspan><tspan dy="1.2em" x="0" >only once</tspan></text></g><g id="v-3987"  label-idx="1" cursor="move" transform="matrix(1,0,0,1,997.5,691)" style="cursor: default; opacity: 1;"><rect joint-selector="rect" id="v-3991" fill="#ffffff" rx="3" ry="3"  width="0" height="0" transform="matrix(1,0,0,1,0,0)" display="none"></rect><text joint-selector="text" id="v-3990" fill="#000000" font-size="14" text-anchor="middle" pointer-events="none"></text></g></g><g  display="none" style="display: none;"></g><g  id="v-3996" display="none"><g  id="v-3984"><path  end="source" d="M 26 0 L 0 13 L 26 26 z"></path></g><g  id="v-3985"><path  end="target" d="M 26 0 L 0 13 L 26 26 z"></path></g></g><g  id="v-3995" display="none"><g  id="v-3983" transform="translate(935.1592588038857, 532.9453349794959) "><g  event="remove"><circle r="11"></circle><path transform="scale(.8) translate(-16, -16)" d="M24.778,21.419 19.276,15.917 24.777,10.415 21.949,7.585 16.447,13.087 10.945,7.585 8.117,10.415 13.618,15.917 8.116,21.419 10.946,24.248 16.447,18.746 21.948,24.248z"></path><title>Remove link.</title></g><g  event="link:options"><circle r="11" transform="translate(25)"></circle><path fill="white" transform="scale(.55) translate(29, -16)" d="M31.229,17.736c0.064-0.571,0.104-1.148,0.104-1.736s-0.04-1.166-0.104-1.737l-4.377-1.557c-0.218-0.716-0.504-1.401-0.851-2.05l1.993-4.192c-0.725-0.91-1.549-1.734-2.458-2.459l-4.193,1.994c-0.647-0.347-1.334-0.632-2.049-0.849l-1.558-4.378C17.165,0.708,16.588,0.667,16,0.667s-1.166,0.041-1.737,0.105L12.707,5.15c-0.716,0.217-1.401,0.502-2.05,0.849L6.464,4.005C5.554,4.73,4.73,5.554,4.005,6.464l1.994,4.192c-0.347,0.648-0.632,1.334-0.849,2.05l-4.378,1.557C0.708,14.834,0.667,15.412,0.667,16s0.041,1.165,0.105,1.736l4.378,1.558c0.217,0.715,0.502,1.401,0.849,2.049l-1.994,4.193c0.725,0.909,1.549,1.733,2.459,2.458l4.192-1.993c0.648,0.347,1.334,0.633,2.05,0.851l1.557,4.377c0.571,0.064,1.148,0.104,1.737,0.104c0.588,0,1.165-0.04,1.736-0.104l1.558-4.377c0.715-0.218,1.399-0.504,2.049-0.851l4.193,1.993c0.909-0.725,1.733-1.549,2.458-2.458l-1.993-4.193c0.347-0.647,0.633-1.334,0.851-2.049L31.229,17.736zM16,20.871c-2.69,0-4.872-2.182-4.872-4.871c0-2.69,2.182-4.872,4.872-4.872c2.689,0,4.871,2.182,4.871,4.872C20.871,18.689,18.689,20.871,16,20.871z"></path><title>Link options.</title></g></g></g></g></g><g ></g><g ></g><g ></g></g></svg>