<svg xmlns="http://www.w3.org/2000/svg" xmlns:xlink="http://www.w3.org/1999/xlink" version="1.1" viewBox="0 0 1058 1391" style="background: #ffffff"><defs><style>@import url(https://fonts.googleapis.com/css?family=Open+Sans:400,700);</style></defs><defs joint-selector="defs"></defs><g joint-selector="layers"  transform="matrix(1,0,0,1,0,0)"><g ></g><g ><g   id="j_365"  transform="translate(20,1353.5)"><g id="v-4715"><text  id="v-4716" font-size="22px" xml:space="preserve" y="0.8em" font-weight="normal" text-anchor="start" fill="#aaaaaa" pointer-events="none" display="block" font-family="Open Sans"><tspan dy="0" >Thursday, 29 February 2024 at 10:02 Moscow Standard Time</tspan></text></g></g><g   id="j_364"  transform="translate(20,1308.5)"><g id="v-4713"><text  id="v-4714" font-size="36px" xml:space="preserve" y="0.8em" font-weight="normal" text-anchor="start" fill="#000000" pointer-events="none" display="block" font-family="Open Sans"><tspan dy="0" >[Component] Machinegun cluster - Quota management</tspan></text></g></g><g   id="j_367"  transform="translate(284,779)" style=""><g id="v-4724"><rect  id="v-4725" width="490" height="411" rx="0" ry="0" fill="#ffffff" stroke="#3c7fc0" stroke-width="1" stroke-dasharray="20,20" pointer-events="none"></rect><text  id="v-4726" font-size="24px" xml:space="preserve" y="372" font-weight="normal" fill="#3c7fc0" text-anchor="start" pointer-events="visible" font-family="Open Sans" transform="matrix(1,0,0,1,15,0)"><tspan dy="0" >Quota management</tspan></text><text  id="v-4727" font-size="17px" xml:space="preserve" y="396" font-weight="normal" fill="#3c7fc0" text-anchor="start" pointer-events="visible" font-family="Open Sans" transform="matrix(1,0,0,1,15,0)"><tspan dy="0" >[Container]</tspan></text><image  id="v-4728" pointer-events="visible"></image></g></g><g   id="j_366"  transform="translate(304,799)" style=""><g  id="v-4717" style="opacity: 1;"><rect  id="v-4718" rx="20" ry="20" stroke="#78a8d8" stroke-width="2" pointer-events="visiblePainted" fill="#85bbf0" width="450" height="300" style="fill: rgb(133, 187, 240); stroke: rgb(120, 168, 216);"></rect><text  id="v-4719" font-size="34" xml:space="preserve" y="0.8em" font-weight="bold" text-anchor="middle" pointer-events="visible" font-family="Open Sans" fill="#000000" transform="matrix(1,0,0,1,225,98.1)" style="fill: rgb(0, 0, 0);"><tspan dy="0" >Quota manager</tspan></text><text  id="v-4720" font-size="17" xml:space="preserve" y="0.8em" text-anchor="middle" font-family="Open Sans" fill="#000000" transform="matrix(1,0,0,1,225,140.6)" style="fill: rgb(0, 0, 0);"><tspan dy="0" >[Component]</tspan></text><text  id="v-4721" font-size="24" xml:space="preserve" y="0.8em" text-anchor="middle" font-family="Open Sans" fill="#000000" transform="matrix(1,0,0,1,225,171.9)" style="fill: rgb(0, 0, 0);"><tspan dy="0" >{}</tspan></text><g  id="v-4722" color="#000000" transform="matrix(1,0,0,1,222.5,211.9)" display="none" style="fill: rgb(0, 0, 0);"><g ></g><g ></g><g ></g><g ></g></g><image  id="v-4723"></image></g></g><g   id="j_368"  transform="translate(304,199)" style=""><g  id="v-4735" style="opacity: 1;"><rect  id="v-4736" rx="20" ry="20" stroke="#3c7fc0" stroke-width="2" pointer-events="visiblePainted" fill="#438dd5" width="450" height="300" style="fill: rgb(67, 141, 213); stroke: rgb(60, 127, 192);"></rect><text  id="v-4737" font-size="34" xml:space="preserve" y="0.8em" font-weight="bold" text-anchor="middle" pointer-events="visible" font-family="Open Sans" fill="#ffffff" transform="matrix(1,0,0,1,225,46.9)" style="fill: rgb(255, 255, 255);"><tspan dy="0" >Namespaced events</tspan><tspan dy="1.2em" x="0" >machines</tspan></text><text  id="v-4738" font-size="17" xml:space="preserve" y="0.8em" text-anchor="middle" font-family="Open Sans" fill="#ffffff" transform="matrix(1,0,0,1,225,131.9)" style="fill: rgb(255, 255, 255);"><tspan dy="0" >[Container]</tspan></text><text  id="v-4739" font-size="24" xml:space="preserve" y="0.8em" text-anchor="middle" font-family="Open Sans" fill="#ffffff" transform="matrix(1,0,0,1,225,163.1)" style="fill: rgb(255, 255, 255);"><tspan dy="0" >Each instance of child component is</tspan><tspan dy="1.2em" x="0" >dedicated to parent namespace</tspan><tspan dy="1.2em" x="0" >only</tspan></text><g  id="v-4740" color="#ffffff" transform="matrix(1,0,0,1,210,263.1)" display="none" style="fill: rgb(255, 255, 255);"><g  transform="translate(5 0)"><svg xmlns="http://www.w3.org/2000/svg" width="20" height="20" fill="currentColor" viewBox="0 0 16 16"><path fill-rule="evenodd" d="M6.5 12a5.5 5.5 0 1 0 0-11 5.5 5.5 0 0 0 0 11zM13 6.5a6.5 6.5 0 1 1-13 0 6.5 6.5 0 0 1 13 0z"></path><path d="M10.344 11.742c.03.04.062.078.098.115l3.85 3.85a1 1 0 0 0 1.415-1.414l-3.85-3.85a1.007 1.007 0 0 0-.115-.1 6.538 6.538 0 0 1-1.398 1.4z"></path><path fill-rule="evenodd" d="M6.5 3a.5.5 0 0 1 .5.5V6h2.5a.5.5 0 0 1 0 1H7v2.5a.5.5 0 0 1-1 0V7H3.5a.5.5 0 0 1 0-1H6V3.5a.5.5 0 0 1 .5-.5z"></path></svg></g><g ></g><g ></g><g ></g></g><image  id="v-4741"></image></g></g><g   id="j_369" ><path  stroke="#707070" d="M 529 499 L 529 799" id="v-4754" stroke-width="2" stroke-dasharray="30 30" fill="none" style="opacity: 1;"></path><path  fill="black" stroke="black" d="M 0 0 0 0" transform="matrix(6.123233995736766e-17,1,-1,6.123233995736766e-17,529,499)"></path><path  fill="#707070" stroke="#707070" d="M 20 0 L 0 10 L 20 20 z" id="v-4756" transform="matrix(-1.8369701987210297e-16,-1,1,-1.8369701987210297e-16,519,799)" style="opacity: 1;"></path><path  d="M 529 499 L 529 799" id="v-4755" fill="none" style="cursor: auto; pointer-events: visiblepainted;"></path><g ><g id="v-4748"  label-idx="0" cursor="move" transform="matrix(1,0,0,1,529,649)" style="cursor: default; opacity: 1;"><rect joint-selector="rect" id="v-4751" fill="#ffffff" rx="3" ry="3" pointer-events="none" width="99.88294982910156" height="90.09051895141602" transform="matrix(1,0,0,1,-49.9,-45)"></rect><text joint-selector="text" id="v-4750" font-size="24px" xml:space="preserve" y="0.8em" fill="#707070" text-anchor="middle" pointer-events="none" font-family="Open Sans" font-weight="normal" transform="matrix(1,0,0,1,0,-38.5)"><tspan dy="0" >Reserves</tspan><tspan dy="1.2em" x="0" >resource</tspan><tspan dy="1.2em" x="0" >partition</tspan></text></g><g id="v-4749"  label-idx="1" cursor="move" transform="matrix(1,0,0,1,519,706)" style="cursor: default; opacity: 1;"><rect joint-selector="rect" id="v-4753" fill="#ffffff" rx="3" ry="3"  width="0" height="0" transform="matrix(1,0,0,1,0,0)" display="none"></rect><text joint-selector="text" id="v-4752" fill="#000000" font-size="14" text-anchor="middle" pointer-events="none"></text></g></g><g  display="none" style="display: none;"></g><g  id="v-4758" display="none"><g  id="v-4746"><path  end="source" d="M 26 0 L 0 13 L 26 26 z"></path></g><g  id="v-4747"><path  end="target" d="M 26 0 L 0 13 L 26 26 z"></path></g></g><g  id="v-4757" display="none"><g  id="v-4745" transform="translate(529, 539) "><g  event="remove"><circle r="11"></circle><path transform="scale(.8) translate(-16, -16)" d="M24.778,21.419 19.276,15.917 24.777,10.415 21.949,7.585 16.447,13.087 10.945,7.585 8.117,10.415 13.618,15.917 8.116,21.419 10.946,24.248 16.447,18.746 21.948,24.248z"></path><title>Remove link.</title></g><g  event="link:options"><circle r="11" transform="translate(25)"></circle><path fill="white" transform="scale(.55) translate(29, -16)" d="M31.229,17.736c0.064-0.571,0.104-1.148,0.104-1.736s-0.04-1.166-0.104-1.737l-4.377-1.557c-0.218-0.716-0.504-1.401-0.851-2.05l1.993-4.192c-0.725-0.91-1.549-1.734-2.458-2.459l-4.193,1.994c-0.647-0.347-1.334-0.632-2.049-0.849l-1.558-4.378C17.165,0.708,16.588,0.667,16,0.667s-1.166,0.041-1.737,0.105L12.707,5.15c-0.716,0.217-1.401,0.502-2.05,0.849L6.464,4.005C5.554,4.73,4.73,5.554,4.005,6.464l1.994,4.192c-0.347,0.648-0.632,1.334-0.849,2.05l-4.378,1.557C0.708,14.834,0.667,15.412,0.667,16s0.041,1.165,0.105,1.736l4.378,1.558c0.217,0.715,0.502,1.401,0.849,2.049l-1.994,4.193c0.725,0.909,1.549,1.733,2.459,2.458l4.192-1.993c0.648,0.347,1.334,0.633,2.05,0.851l1.557,4.377c0.571,0.064,1.148,0.104,1.737,0.104c0.588,0,1.165-0.04,1.736-0.104l1.558-4.377c0.715-0.218,1.399-0.504,2.049-0.851l4.193,1.993c0.909-0.725,1.733-1.549,2.458-2.458l-1.993-4.193c0.347-0.647,0.633-1.334,0.851-2.049L31.229,17.736zM16,20.871c-2.69,0-4.872-2.182-4.872-4.871c0-2.69,2.182-4.872,4.872-4.872c2.689,0,4.871,2.182,4.871,4.872C20.871,18.689,18.689,20.871,16,20.871z"></path><title>Link options.</title></g></g></g></g></g><g ></g><g ></g><g ></g></g></svg>